<?xml version="1.0" encoding="UTF-8"?><svg id="Layer_2" xmlns="http://www.w3.org/2000/svg" viewBox="0 0 756.43 679.08"><defs><style>.cls-1{fill:#ffb17a;}.cls-1,.cls-2{stroke-width:0px;}.cls-2{fill:#ff8747;}</style></defs><g id="Layer_2-2"><g id="Layer_1-2"><path class="cls-1" d="M516.92,483.02c-47.96,8.99-102.84,14.78-158.71,16.74-13.66.48-27.04.72-40.06.72-38.19,0-73.26-2.05-103.21-6.06,1.21,16.73,4.22,33.14,8.92,48.96,35.77,3.08,68.41,21.5,102.8,40.9,61.33,34.62,124.61,70.31,217.99,29.48,44.12-40.98,73.07-98.05,77.51-161.89-25.33,12.23-61.29,22.9-105.25,31.14h.01Z"/><path class="cls-1" d="M216.59,409.66c44.37-2.04,89.33-33.52,136.83-66.8,55.03-38.55,116.86-81.85,190.42-88.09-43.15-39.72-100.62-64.11-163.79-64.54-105.46,15.3-152.46,112.23-163.47,219.43h.01Z"/><path class="cls-1" d="M267.05,647.4c-24.61-25.45-43.13-55.85-54.62-88.93-14.98.27-26.83,6.31-35.55,14.62,25.04,36.37,59.67,65.63,100.25,84.12-3.43-3.14-6.79-6.4-10.08-9.81h0Z"/><path class="cls-1" d="M463.89,647.48c-56.83,0-102.63-25.85-144.85-49.68-30.52-17.22-59.6-33.63-89.67-38.14,10.86,28.54,27.38,54.75,48.84,76.95,14.72,15.23,30.94,27.63,47.89,36.86,16.83,3.67,34.31,5.61,52.24,5.61,47.14,0,91.15-13.36,128.49-36.47-15.02,3.37-29.3,4.86-42.94,4.86h0Z"/><path class="cls-1" d="M214.23,478.7c38.67,5.38,88.19,7.48,143.44,5.54,113.83-3.99,216.64-23.53,265.1-50.12-.13-63.44-24.44-121.2-64.19-164.58-75.19,1.22-136.73,44.32-196.27,86.03-50.11,35.1-97.5,68.27-147.07,69.65-1.25,17.75-1.56,35.68-1.02,53.48h.01Z"/><path class="cls-1" d="M179.89,394.34c5.52,7.16,12.73,11.91,21.17,14.08,1.14-11.17,2.64-22.1,4.51-32.77,6.63-37.74,17.72-71.24,32.97-99.55,16.56-30.75,37.89-55.11,63.41-72.39,1.31-.89,2.64-1.74,3.98-2.59-55.48,17.18-102.5,53.59-133.29,101.44-9.54,40.86-7.03,73.28,7.25,91.78Z"/><path class="cls-1" d="M198.63,476.25c-.46-17.84-.09-35.29,1.09-52.24-12.82-2.69-23.96-9.62-32.12-20.2-11.18-14.49-16.56-35.26-16.03-60.56-11.39,28.23-17.67,59.08-17.67,91.39,0,5.85.22,11.65.62,17.4,9.38,10.27,32.01,18.53,64.1,24.2h.01Z"/><path class="cls-1" d="M199.26,492.05c-27.38-4.62-48.23-10.97-62.34-18.97,4.95,31.31,15.84,60.64,31.48,86.81,11.15-9.71,24.7-15.49,39.27-16.71-4.57-16.57-7.4-33.7-8.41-51.13Z"/><path class="cls-2" d="M756.42,655.08l-113.19-196.04c-2.21,24.37-7.73,48.13-16.51,70.97l43.48,75.32h-87.83c-5.04,6-10.34,11.82-15.93,17.41-12.09,12.09-25.17,22.89-39.13,32.34h229.12,0Z"/><path class="cls-2" d="M274.8,189.56c19.85-8.4,40.45-14.27,61.57-17.61l41.82-72.42,41.78,72.36c21.25,3.33,41.96,9.23,61.92,17.67,2.6,1.1,5.17,2.25,7.73,3.43L378.19,0l-111.53,193.18c2.69-1.25,5.4-2.46,8.14-3.62h0Z"/><path class="cls-2" d="M190.26,622.74c-5.59-5.59-10.9-11.41-15.93-17.41h-88.19l43.7-75.68c-8.75-22.86-14.24-46.64-16.41-71.03L0,655.08h229.39c-13.97-9.45-27.04-20.25-39.13-32.34Z"/></g></g></svg>