<?xml version="1.0" encoding="UTF-8"?><svg id="Layer_2" xmlns="http://www.w3.org/2000/svg" viewBox="0 0 119.25 120.7"><defs><style>.cls-1{fill:#666;stroke-width:0px;}</style></defs><g id="Layer_1-2"><path class="cls-1" d="M88.09,63.87l29.71,29.98c1.91,1.93,1.93,5.04.05,6.99l-17.7,18.33c-1.95,2.02-5.17,2.04-7.15.05l-29.82-30.09c-1.96-1.97-5.15-1.97-7.1,0l-29.82,30.09c-1.97,1.99-5.2,1.97-7.15-.05L1.4,100.84c-1.89-1.96-1.87-5.06.05-6.99l29.71-29.98c1.93-1.95,1.93-5.09,0-7.04L1.45,26.85c-1.91-1.93-1.93-5.04-.05-6.99L19.1,1.53c1.95-2.02,5.17-2.04,7.15-.05l29.82,30.09c1.96,1.97,5.15,1.97,7.1,0L93,1.48c1.97-1.99,5.2-1.97,7.15.05l17.7,18.33c1.89,1.96,1.87,5.06-.05,6.99l-29.71,29.98c-1.93,1.95-1.93,5.09,0,7.04Z"/></g></svg>