<?xml version="1.0" encoding="UTF-8"?><svg id="Layer_2" xmlns="http://www.w3.org/2000/svg" viewBox="0 0 96 59.69"><defs><style>.cls-1{fill:#fbb03b;stroke-width:0px;}</style></defs><g id="Layer_1-2"><path class="cls-1" d="M85.55,3c4.11,0,7.45,3.33,7.45,7.45v38.79c0,4.11-3.33,7.45-7.45,7.45H10.45c-4.11,0-7.45-3.33-7.45-7.45V10.45c0-4.11,3.33-7.45,7.45-7.45h75.1M85.55,0H10.45C4.69,0,0,4.69,0,10.45v38.79c0,5.76,4.69,10.45,10.45,10.45h75.1c5.76,0,10.45-4.69,10.45-10.45V10.45c0-5.76-4.69-10.45-10.45-10.45h0Z"/></g></svg>