<?xml version="1.0" encoding="UTF-8"?><svg id="Layer_2" xmlns="http://www.w3.org/2000/svg" viewBox="0 0 170 45.21"><defs><style>.cls-1{fill:#016938;stroke-width:0px;}</style></defs><g id="Layer_1-2"><path class="cls-1" d="M162.04,2.92l-.58-.05c-10.45-.73-20.89-1.27-31.34-1.61C109.49.13,88.82-.34,67.91.27c-10.46.33-20.98.91-31.7,2.06-5.36.56-10.79,1.32-16.34,2.31-5.57,1.02-11.22,2.25-17.36,4.31h-.01C1.03,9.47-.03,10.35,0,11.03c.1,2.66.29,5.29.58,7.89.26,7.3,1.32,14.69,4.27,20.97.32.69.91,1.25,1.58,1.64,1.56.97,3.22,2.03,4.8,3.16.91.6,1.96.69,3.26.28,3.73-1.29,8.45-2.38,13.32-3.23,4.89-.85,10.02-1.51,15.22-2.04,10.42-1.04,21.17-1.56,31.97-1.8,21.63-.43,43.54.25,65.32,1.72,1.58.1,3.01-.38,3.51-1.18l2.45-3.95c.69-1.1,1-2.28.93-3.49l-.24-3.82c-.02-.33.2-.64.61-.86l3.65-1.92c1-.52,1.55-1.26,1.55-2.05-.02-2.1,2.24-3.91,5.79-4.52l1.52-.27c1.09-.19,1.94-.63,2.36-1.21.42-.58.36-1.26-.16-1.87-.46-.54-.19-1.14.64-1.45,1.77-.63,2.2-1.96.98-3.07l-1.26-1.14c-.41-.36-.48-.79-.21-1.15.27-.36.86-.6,1.59-.65l4.07-.27c1.11-.07,1.89-.55,1.93-1.16.04-.61-.69-1.21-1.78-1.47l-2.42-.58c-1.22-.3-2.48-.5-3.76-.61"/></g></svg>