<?xml version="1.0" encoding="UTF-8"?><svg id="Layer_2" xmlns="http://www.w3.org/2000/svg" viewBox="0 0 158.73 123"><defs><style>.cls-1{fill:#666;stroke-width:0px;}</style></defs><g id="Layer_1-2"><path class="cls-1" d="M152.53,19.57c3.42,0,6.2-2.78,6.2-6.2v-7.17c0-3.42-2.78-6.2-6.2-6.2H6.2C2.78,0,0,2.78,0,6.2v7.17c0,3.42,2.78,6.2,6.2,6.2h15.68v83.86H6.2c-3.42,0-6.2,2.78-6.2,6.2v7.17c0,3.42,2.78,6.2,6.2,6.2h146.33c3.42,0,6.2-2.78,6.2-6.2v-7.17c0-3.42-2.78-6.2-6.2-6.2h-15.68V19.57h15.68ZM50.99,103.43V19.57h13.82v83.86h-13.82ZM107.74,103.43h-13.82V19.57h13.82v83.86Z"/></g></svg>