<?xml version="1.0" encoding="UTF-8"?><svg id="Layer_2" xmlns="http://www.w3.org/2000/svg" viewBox="0 0 131.45 123"><defs><style>.cls-1{fill:#666;stroke-width:0px;}</style></defs><g id="Layer_1-2"><path class="cls-1" d="M125.25,19.57c3.42,0,6.2-2.78,6.2-6.2v-7.17c0-3.42-2.78-6.2-6.2-6.2H6.2C2.78,0,0,2.78,0,6.2v7.17c0,3.42,2.78,6.2,6.2,6.2h15.68v83.86H6.2c-3.42,0-6.2,2.78-6.2,6.2v7.17c0,3.42,2.78,6.2,6.2,6.2h119.05c3.42,0,6.2-2.78,6.2-6.2v-7.17c0-3.42-2.78-6.2-6.2-6.2h-15.68V19.57h15.68ZM80.46,103.43h-29.46V19.57h29.46v83.86Z"/></g></svg>