<?xml version="1.0" encoding="UTF-8"?><svg id="Layer_2" xmlns="http://www.w3.org/2000/svg" viewBox="0 0 614.72 361.14"><defs><style>.cls-1{fill:#131314;}</style></defs><g id="Layer_1-2"><path class="cls-1" d="M469.86,88.65c-10.11-16.99-32.08-22.57-49.07-12.47,0,0-.01,0-.02.01-16.99,10.1-22.58,32.07-12.48,49.06,0,0,.01.02.01.03,10.11,16.99,32.08,22.57,49.07,12.47,17-10.1,22.6-32.07,12.5-49.07,0,0-.01-.02-.02-.03ZM454.38,132.68s0,0-.01,0c-14.2,8.44-32.56,3.77-41-10.43-8.44-14.2-3.77-32.56,10.43-41,0,0,.01,0,.02-.01,14.2-8.43,32.55-3.76,40.98,10.44,0,0,0,0,0,0,8.44,14.2,3.78,32.55-10.42,40.99ZM340.03,55.38c-1.91-3.22-.85-7.37,2.36-9.28,0,0,0,0,0,0,3.21-1.91,7.37-.86,9.28,2.36,0,0,0,0,0,0,1.91,3.22.85,7.37-2.36,9.28-3.21,1.91-7.37.86-9.28-2.36,0,0,0,0,0,0ZM444.85,103.8c1.91,3.22.85,7.37-2.36,9.28-3.22,1.91-7.37.86-9.28-2.36,0,0,0,0,0,0-1.91-3.22-.85-7.37,2.36-9.28,0,0,0,0,0,0,3.22-1.91,7.37-.86,9.28,2.36,0,0,0,0,0,0ZM313.34,60.17s0,0,0,0c-.96-1.61-.43-3.69,1.18-4.64,0,0,0,0,0,0,1.61-.96,3.69-.43,4.64,1.18,0,0,0,0,0,0,.96,1.61.43,3.69-1.18,4.64-1.61.96-3.69.43-4.64-1.18ZM305.79,64.07c-1.61.96-3.69.43-4.64-1.18,0,0,0,0,0,0-.96-1.61-.43-3.69,1.18-4.64,0,0,0,0,0,0,1.61-.96,3.69-.43,4.64,1.18,0,0,0,0,0,0,.96,1.61.43,3.69-1.18,4.64ZM371.22,19.69c-.96-1.61-.43-3.69,1.18-4.64,0,0,0,0,0,0,1.61-.96,3.69-.43,4.64,1.18,0,0,0,0,0,0,.96,1.61.43,3.69-1.18,4.64-1.61.96-3.69.43-4.64-1.18,0,0,0,0,0,0ZM362.04,32.04c-.96-1.61-.43-3.69,1.18-4.64,0,0,0,0,0,0,1.61-.96,3.69-.43,4.64,1.18,0,0,0,0,0,0,.96,1.61.43,3.69-1.18,4.64-1.61.96-3.69.43-4.64-1.18,0,0,0,0,0,0ZM316.97,26.54s0,0,0,0c.96,1.61.43,3.69-1.18,4.64-1.61.96-3.69.43-4.64-1.18,0,0,0,0,0,0-.96-1.61-.43-3.69,1.18-4.64,0,0,0,0,0,0,1.61-.96,3.69-.43,4.64,1.18ZM330.58,32.81c-.96-1.61-.43-3.69,1.18-4.64,0,0,0,0,0,0,1.61-.96,3.69-.43,4.64,1.18,0,0,0,0,0,0,.96,1.61.43,3.69-1.18,4.64-1.61.96-3.69.43-4.64-1.18,0,0,0,0,0,0ZM338.35,14.36c-.96-1.61-.43-3.69,1.18-4.64,0,0,0,0,0,0,1.61-.96,3.69-.43,4.64,1.18,0,0,0,0,0,0,.96,1.61.43,3.69-1.18,4.64-1.61.96-3.69.43-4.64-1.18,0,0,0,0,0,0ZM614.28,95.46c-.51-2.85-1.57-5.74-3.1-8.23-1.5-2.51-3.42-4.67-5.52-6.54-2.11-1.84-4.43-3.41-6.85-4.66-2.41-1.26-4.9-2.24-7.39-3.04-2.49-.8-4.98-1.42-7.44-1.95-2.47-.54-4.92-.94-6.99-1.45-2.09-.52-3.88-1.2-5.2-2.17-1.37-.99-2.25-2.23-2.46-3.32-.27-1.1.03-3.02.64-5.31.53-2.22,1.22-4.43,1.96-6.65,2.97-8.88,7.27-17.76,9.89-27.68.61-2.44,1.3-5.04,1.37-8.13.02-1.53-.12-3.18-.64-4.86-.49-1.68-1.41-3.3-2.57-4.65-1.17-1.35-2.57-2.39-3.98-3.15-1.42-.76-2.87-1.28-4.28-1.66-2.82-.74-5.64-.96-8.23-.94-10.13-.04-20.18,1.39-29.89,4.18-9.68,2.81-19.14,7.01-27.35,13.39-2.04,1.6-4.01,3.32-5.82,5.22-1.82,1.89-3.54,3.9-5.03,6.1-1.51,2.18-2.87,4.49-3.95,6.94-1.13,2.43-1.96,5-2.63,7.39-.68,2.39-1.25,4.64-2.05,6.46-.77,1.86-1.8,3.28-3.19,4.57-.37.33-.71.58-1.15.95l-1,.86c-.31.29-.56.57-.83.86-.56.58-.96,1.18-1.44,1.77-.39.61-.83,1.21-1.17,1.85-1.06,1.84-1.87,3.81-2.42,5.86l-4.65-7.86c-14.61-24.54-46.3-32.66-70.91-18.17l-39.8,23.57s0,0,0,0c-1.41.83-1.87,2.65-1.04,4.06l.24.38c1.39,2.83.39,6.26-2.32,7.9h0s0,0,0,0h0c-2.87,1.7-6.56.76-8.28-2.09,0-.01-.02-.03-.03-.04-.84-1.4-2.65-1.86-4.05-1.02l-56.4,33.4s0,0,0,0c-1.41.83-1.87,2.65-1.04,4.06l22.87,38.51c.68,1.16,2.07,1.7,3.36,1.33l35.18-10.07c29.97-8.59,34.11-6.23,51.62,3.72,3.57,2.03,7.69,4.36,12.71,7.02,15.7,9,35.65,9.52,52.31-.39,16.05-9.54,25.07-26.39,25.36-43.78,3.65.76,7.46.14,10.68-1.76,2.29-1.35,4.08-3.23,5.33-5.38,1.02.24,1.97.54,2.86.92,1.69.72,3.2,1.78,4.62,3.13,1.4,1.37,2.72,2.98,3.87,4.82.31.43.56.93.85,1.39.27.48.57.93.82,1.44.51.99,1.06,1.99,1.45,2.92,1.68,3.8,2.5,8.04,2.53,12.34.04,4.32-.69,8.66-2.05,12.87-1.37,4.33-3.43,8.98-4.47,14.46-.51,2.75-.68,5.74-.28,8.68.41,2.95,1.35,5.99,3.22,8.73,1.87,2.76,4.69,4.91,7.75,6.09,3.08,1.14,6.22,1.4,9.08,1.19,2.88-.21,5.57-.8,8.12-1.57,1.27-.39,2.53-.81,3.74-1.28,1.22-.46,2.34-.93,3.51-1.41,9.24-3.88,18.14-8.74,26.26-14.78,8.13-6,15.45-13.24,21.41-21.52,2.99-4.13,5.6-8.54,7.84-13.14,2.21-4.62,4.01-9.45,5.32-14.44,1.28-5,2.15-10.49,1.14-16.25ZM482.81,74.27c4.3-2.56,9.87-1.14,12.42,3.16l.51.87h0c-4.11-.48-8.24.77-11.4,3.45l-3.47-5.93c.57-.6,1.22-1.12,1.94-1.54ZM403.3,46.38c.09-.05.18-.1.27-.16,21.94-12.74,50.05-5.28,62.78,16.66,0,0,0,0,0,0h0s0,0,0,0c-16.42-10.16-37.14-10.34-53.74-.47l-37.08,22.05-9.5-16.01,37.27-22.07ZM360.35,82.27h0s0,0,0,0h0c1.82-1.09,3.32-2.64,4.35-4.49l7.24,12.21c1.69,2.88.75,6.58-2.1,8.3h0s0,0,0,0h0c-2.87,1.7-6.56.76-8.29-2.09h0s0-.02,0-.02h0s-7.27-12.25-7.27-12.25c2.14,0,4.23-.58,6.07-1.67ZM294.15,111.01l51.32-30.39,9.12,15.38-50.93,31.07-9.51-16.07ZM347.34,135.58l-33,9.44-7.4-12.43,31.91-19.47,19.47-11.57c3.87,3.85,9.85,4.6,14.54,1.82h0s0,0,0,0h0c4.69-2.8,6.9-8.42,5.36-13.66l16.59-9.86c-9.88,15.91-10.77,36.63-.54,53.84,0,.01.01.02.02.04.3.51.63,1.01.95,1.5-13.13-6.87-20.69-7.46-47.89.34ZM461.75,145.76s-.01,0-.02.01c-21.28,12.65-48.79,5.65-61.44-15.64-12.65-21.29-5.65-48.8,15.63-61.45.01,0,.02-.01.03-.02,21.28-12.64,48.78-5.63,61.42,15.65,0,0,0,0,0,0,12.65,21.28,5.66,48.78-15.62,61.44ZM490.39,101.78c-.27-2.54-.72-5.07-1.38-7.58,1.15,1.31,2.67,2.56,4.4,3.45,1.76.93,3.65,1.5,5.4,1.87.46.1.9.18,1.34.26-2.48,2.48-6.3,3.39-9.76,2.01ZM498.73,91.38c-2.17-.31-3.71-.82-4.83-1.19-1.46-.43-2.94-1.28-4.34-2.35-.54-.44-1.1-.92-1.63-1.42.38-.31.78-.6,1.2-.85,2.43-1.43,5.39-1.65,8-.6,2.99,1.21,4.97,3.84,5.51,6.79-1.51-.13-2.83-.22-3.92-.39ZM604.02,112.82c-.7,2.19-1.48,4.36-2.39,6.49-1.79,4.26-4.03,8.33-6.56,12.23-5.12,7.76-11.56,14.66-18.91,20.48-7.33,5.85-15.54,10.65-24.18,14.52-2.14.96-4.38,1.89-6.53,2.71-2.13.8-4.27,1.43-6.37,1.83-2.1.41-4.16.52-5.99.26-1.85-.24-3.36-.94-4.63-1.98-1.22-1.04-2.13-2.52-2.69-4.3-.57-1.77-.75-3.8-.63-5.81.11-1.98.61-4.15,1.25-6.31.64-2.17,1.47-4.41,2.29-6.75.41-1.17.82-2.37,1.21-3.61l.55-1.9.48-1.92c.58-2.58.97-5.21,1.13-7.86.32-5.3-.27-10.75-2.04-15.9-.44-1.29-.95-2.55-1.54-3.79-.58-1.22-1.17-2.33-1.81-3.49-1.29-2.28-2.77-4.52-4.54-6.63-1.77-2.1-3.9-4.07-6.4-5.58-2.19-1.34-4.65-2.28-7.02-2.84-.11-2.37-.77-4.75-2.06-6.93l-6.59-11.12c-.42-.71-.9-1.39-1.43-2.02-3.57-4.23-8.97-5.97-14.05-5.08.46-1.07,1.02-2.1,1.68-2.97l.4-.52c.13-.17.27-.28.4-.43l.19-.22.17-.13c.13-.11.12-.13.5-.43.59-.49,1.19-.93,1.74-1.5l.84-.82.78-.89c2.09-2.41,3.4-5.35,4.26-7.93.86-2.61,1.41-4.96,2.1-7.09.33-1.08.7-2.09,1.11-3.08.19-.5.44-.98.66-1.47.22-.49.45-.98.72-1.45.98-1.92,2.2-3.73,3.53-5.45,1.32-1.74,2.85-3.35,4.46-4.87,6.51-6.09,14.82-10.48,23.58-13.48,8.79-2.99,18.11-4.73,27.42-5.12,1.16-.04,2.33-.09,3.49-.08h1.73c.53.01,1.06.04,1.58.08,2.08.16,4.06.56,5.57,1.26,1.54.71,2.39,1.56,2.84,2.67.47,1.09.53,2.84.19,4.86-.15,1-.42,2.09-.7,3.21-.26,1.11-.6,2.22-.91,3.33-.67,2.22-1.44,4.45-2.26,6.68-1.65,4.47-3.52,8.98-5.26,13.66-.86,2.35-1.7,4.73-2.44,7.17-.36,1.23-.73,2.45-1.04,3.71-.31,1.26-.64,2.47-.87,3.96-.23,1.46-.37,3.14-.1,4.97.28,1.85,1.01,3.64,1.98,5.1,1.96,2.94,4.7,4.85,7.5,6.08,2.77,1.2,5.48,1.76,7.92,2.24,2.42.47,4.68.92,6.93,1.49,4.46,1.12,8.68,2.66,12.17,4.98,3.51,2.31,6.36,5.46,7.72,9.01,1.4,3.54,1.38,7.82.57,12.17-.38,2.18-1.01,4.4-1.68,6.6ZM363.39,42.44l27.01-17.31c.18-.12.46-.05.78.18.31.23.62.61.86,1.04l2.23,4.03c.55,1,.65,1.97.22,2.24l-26.9,17.15c-.37.24-.91.16-1.53-.22l-.3-.18c-.41-.25-.85-.82-1.07-1.41l-1.36-3.59c-.35-.92-.32-1.67.07-1.92ZM304.19,77.99c-.51-1.02-.59-1.98-.18-2.22l25.94-15.13c.36-.21.87-.1,1.46.31l.28.2c.39.28.8.86,1,1.46l1.25,3.62c.32.92.28,1.67-.09,1.89l-26.04,15.29c-.18.1-.44.02-.74-.23-.29-.25-.59-.64-.81-1.08l-2.07-4.11ZM345.99,32.23l10.06-31c.07-.21.33-.34.72-.36.39-.02.87.07,1.33.25l4.28,1.71c1.06.42,1.75,1.12,1.59,1.61l-10.09,30.8c-.14.42-.61.71-1.33.82l-.35.05c-.48.07-1.18-.09-1.72-.41l-3.32-1.92c-.85-.49-1.31-1.1-1.16-1.54ZM312.16,4.27c-.08-.12.03-.33.29-.6s.65-.55,1.08-.79l4.01-2.25c.99-.56,1.89-.78,2.06-.51l11.14,17.14c.15.24,0,.65-.45,1.16l-.22.25c-.3.34-.88.75-1.45,1l-3.47,1.55c-.89.4-1.57.49-1.73.25l-11.27-17.19ZM325.57,49.95l-32.62-3.72c-.22-.03-.4-.25-.5-.63-.1-.38-.11-.87-.02-1.35l.82-4.53c.2-1.12.75-1.93,1.26-1.87l32.43,3.78c.45.05.83.46,1.08,1.14l.12.33c.17.46.14,1.17-.06,1.77l-1.23,3.64c-.31.93-.82,1.5-1.29,1.44ZM106.47,241.39c.13.28-.21.7-.84,1.03l-2.29,1.23c-.41.22-.7.49-.77.72-.08.23.07.4.39.45l1,.16c.97.16,1.04.86.15,1.63-.42.36-.44.7-.04.82.45.13.64.42.53.79-.11.37-.52.8-1.12,1.18l-.85.54c-1.98,1.23-2.97,2.63-2.49,3.57.18.36,0,.83-.49,1.34l-1.83,1.84c-.21.21-.28.4-.19.55l.97,1.66c.31.52.37,1.14.17,1.83l-.72,2.43c-.15.5-.97,1.09-2.01,1.45-11.05,3.83-22.25,7.24-33.56,10.25,0,10.89.14,21.79.44,32.68.34,8.65.82,17.28,1.34,25.92l.03.48c.06,1.06.07,2.11.03,3.14l-.06,2.04c-.03.92-.26,1.58-.56,1.62-.3.04-.61-.55-.75-1.45l-.51-3.32c-.09-.59-.26-1.05-.46-1.24-.2-.19-.4-.08-.55.29l-.45,1.16c-.43,1.13-1.13.92-1.6-.49-.22-.66-.54-.82-.77-.38-.26.5-.59.61-.91.33-.32-.29-.61-.96-.81-1.85l-.27-1.25c-.61-2.92-1.66-4.67-2.71-4.46-.39.08-.8-.32-1.14-1.13l-1.23-2.94c-.14-.33-.31-.49-.47-.45l-1.87.54c-.59.17-1.2,0-1.8-.5l-2.13-1.8c-.44-.37-.77-1.58-.83-2.97-.49-13.12-.76-26.24-.83-39.36-11.92,2.65-23.95,4.85-36.04,6.58-1.26.17-2.45.05-3.13-.3l-3.83-2.03c-.51-.27-.72-.64-.61-1.04,1.02-3.6,2.01-7.21,2.96-10.8l.71-3.88c.06-.33.68-.66,1.45-.76h0c12.93-1.83,25.78-4.22,38.51-7.15.19-18.84.8-37.68,1.85-56.5.1-1.6.46-3.06.94-3.82l2.79-4.32c.37-.57.78-.76,1.14-.53l9.96,6.19,3.65,1.81c.31.15.5,1.02.44,2.03h0c-.95,16.77-1.56,33.55-1.82,50.34,6.55-1.81,13.06-3.75,19.52-5.85,6.32-2.15,12.56-4.5,18.77-6.92l.34-.13c.76-.29,1.54-.54,2.3-.74l1.53-.4c.69-.18,1.25-.11,1.38.17ZM194.59,354.42c-.33-1.83-.74-3.7-1.21-5.56l-.22-.84-.75-2.85c-.24-.95-.43-1.91-.65-2.87l-1.28-5.75c-.83-3.84-1.78-7.65-2.42-11.53l-2.11-11.59c-.62-3.88-1.13-7.78-1.7-11.67-4.65-37.3-4.42-75.22.61-112.48,9.29-3.59,18.56-7,27.84-10.02,1.14-.37,2.02-1.11,2.14-1.82l.63-3.45c.18-.97.08-1.87-.31-2.69l-1.24-2.59c-.11-.22-.04-.5.2-.77l2.08-2.35c.57-.64.77-1.31.54-1.87-.6-1.46.54-3.35,2.93-4.79l1.03-.59c.74-.43,1.24-.96,1.39-1.48.15-.52-.08-.98-.62-1.27-.48-.26-.45-.75.08-1.18,1.12-.93,1.08-1.98-.11-2.42l-1.23-.45c-.4-.15-.57-.42-.47-.75.1-.32.47-.66.99-.89l2.92-1.32c.79-.36,1.25-.91,1.12-1.34-.13-.44-.83-.66-1.71-.54l-1.94.26c-.98.13-1.97.34-2.94.6l-.44.13c-7.88,2.44-15.64,5.05-23.21,7.91-1.36.47-2.71.96-4.07,1.44,2.84-13.37,6.32-26.6,10.43-39.62h0c.57-1.75.74-3.33.35-3.72l-4.42-4.51c-3.8-4.85-7.57-9.81-11.29-14.89-.41-.56-1.09-.38-1.93.52l-6.3,6.82c-1.11,1.21-2.4,3.75-3.38,6.65-6.28,19.87-11.18,40.16-14.69,60.67-15.03,6.01-29.79,12.16-44.52,17.81,2.28-30.89,9.17-61.68,18.02-92.08h0c.28-.97.18-1.88-.25-2.15l-4.95-3.11c-4.42-3.23-8.83-6.49-13.23-9.79-.49-.37-1.11-.33-1.76.1l-4.91,3.26c-.86.57-1.68,1.9-2.14,3.45-2.69,9.38-5.29,18.8-7.57,28.35-2.3,9.54-4.41,19.16-6.13,28.9-1.73,9.73-3.22,19.54-4.24,29.44-1.02,9.9-1.66,19.87-1.84,29.88-.02,1.45.41,2.73,1.04,3.13l3.07,1.97c.86.54,1.76.74,2.65.59l2.85-.47c.25-.04.49.13.67.47.53,1.01,1.12,2.02,1.67,3.02.46.82,1.06,1.24,1.65,1.17,1.57-.18,3.07,1.6,3.82,4.5.1.42.23.83.34,1.24.25.89.67,1.55,1.14,1.84.47.28.97.16,1.38-.33.36-.43.83-.28,1.14.37.66,1.38,1.69,1.57,2.39.47l.71-1.14c.23-.36.54-.47.83-.29.29.18.54.63.65,1.21l.64,3.22c.17.87.61,1.44,1.06,1.39.46-.05.82-.69.9-1.59l.17-1.98c.09-.99.11-2.01.06-3.03l-.02-.46c-.02-.5-.04-1-.06-1.49.71,0,1.5-.14,2.29-.43,12.95-4.84,25.58-10,38.1-15.1-4.11,41.37-2.66,83.27,4.37,124.27.45,2.62,1.27,4.84,2.02,5.45,1.23.99,2.41,1.98,3.67,2.95,1.05.81,2.01,1,2.84.56l2.61-1.39c.23-.12.53.14.84.73l2.78,5.16c.76,1.4,1.49,2.05,2.05,1.81,1.49-.63,3.57,2.35,5.46,7.49l.86,2.19c.62,1.57,1.3,2.7,1.89,3.14.59.43,1.03.13,1.22-.84.17-.85.7-.65,1.28.48,1.23,2.4,2.33,2.58,2.55.44l.23-2.2c.07-.7.34-.95.7-.67.37.28.79,1.06,1.15,2.09l1.98,5.78c.54,1.57,1.2,2.53,1.63,2.37.43-.16.53-1.41.23-3.05l-.66-3.65ZM269.02,226.53c2.91,3.45,4.67,7.73,5.29,12.83s-.08,9.66-2.09,13.67c-2.01,4.01-5.14,7.32-9.4,9.91-4.26,2.59-9.47,4.26-15.64,5l-9.54,1.15,1.96,16.25-22.3,2.69-7.99-66.13,31.84-3.85c6.17-.75,11.63-.38,16.38,1.09,4.75,1.47,8.58,3.93,11.48,7.38ZM251.82,242.08c-.29-2.39-1.26-4.19-2.9-5.4-1.65-1.21-4.02-1.62-7.1-1.25l-8.13.98,1.87,15.49,8.13-.98c3.08-.37,5.29-1.34,6.6-2.91,1.31-1.56,1.82-3.54,1.54-5.94ZM351.04,224.29c2.36,3.96,3.85,8.47,4.46,13.5.6,4.98.23,9.69-1.12,14.13-1.35,4.44-3.5,8.43-6.46,11.95-2.96,3.52-6.61,6.41-10.94,8.65-4.33,2.25-9.2,3.7-14.62,4.35s-10.42.4-15.19-.75c-4.77-1.15-9.02-3.08-12.73-5.8-3.72-2.71-6.76-6.07-9.12-10.07-2.37-3.99-3.85-8.48-4.45-13.46-.61-5.04-.24-9.76,1.12-14.18,1.35-4.41,3.51-8.38,6.47-11.9,2.96-3.52,6.62-6.41,10.98-8.66,4.36-2.25,9.22-3.7,14.57-4.35,5.42-.65,10.49-.4,15.24.75,4.74,1.15,8.97,3.09,12.68,5.8,3.71,2.71,6.75,6.05,9.12,10.02ZM333.01,240.51c-.31-2.58-.97-4.85-1.97-6.81-1-1.95-2.27-3.56-3.79-4.81-1.53-1.25-3.23-2.15-5.12-2.69-1.89-.54-3.87-.68-5.95-.43s-3.97.86-5.67,1.84c-1.7.97-3.15,2.25-4.33,3.83-1.18,1.58-2.03,3.44-2.54,5.58-.51,2.14-.61,4.5-.29,7.08s.97,4.85,1.97,6.81c1,1.96,2.27,3.56,3.79,4.81,1.52,1.25,3.23,2.15,5.12,2.69,1.89.54,3.87.68,5.95.43s3.97-.86,5.67-1.84c1.7-.97,3.15-2.25,4.33-3.83,1.18-1.58,2.03-3.44,2.54-5.58.51-2.14.61-4.5.29-7.08ZM411.6,228.91c-2.35-1.19-4.87-2.06-7.55-2.63-2.69-.57-5.37-.95-8.05-1.14-2.67-.19-5.13-.37-7.35-.55-2.23-.18-4.04-.52-5.44-1.02-1.4-.5-2.17-1.32-2.31-2.45-.09-.76.09-1.48.55-2.18.46-.69,1.29-1.31,2.51-1.84,1.21-.53,2.89-.92,5.03-1.18,2.9-.35,5.92-.3,9.08.15,3.15.45,6.47,1.3,9.94,2.54l4.76-16.97c-3.7-1.53-7.78-2.51-12.24-2.93-4.46-.42-8.93-.36-13.4.18-6.8.82-12.37,2.52-16.69,5.08-4.32,2.57-7.43,5.68-9.32,9.32-1.89,3.65-2.59,7.52-2.1,11.61.43,3.53,1.44,6.39,3.05,8.59,1.61,2.2,3.59,3.9,5.93,5.08,2.35,1.19,4.88,2.06,7.6,2.63,2.72.57,5.4.96,8.05,1.18,2.65.22,5.09.44,7.32.65,2.23.21,4.05.58,5.46,1.11,1.41.53,2.18,1.4,2.33,2.59.09.76-.11,1.44-.62,2.04-.5.6-1.35,1.12-2.54,1.55s-2.86.78-5,1.04c-3.65.44-7.48.35-11.49-.29-4.01-.63-7.69-1.67-11.06-3.12l-5.22,17.12c3.58,1.61,8.03,2.74,13.35,3.37,5.32.64,10.75.62,16.29-.05,6.86-.83,12.44-2.54,16.73-5.14,4.29-2.59,7.38-5.72,9.27-9.36,1.89-3.65,2.59-7.49,2.11-11.52-.42-3.46-1.43-6.28-3.03-8.45-1.6-2.17-3.58-3.85-5.93-5.04ZM479.6,226.45c-1.6-2.17-3.58-3.85-5.93-5.04-2.35-1.19-4.87-2.06-7.55-2.63-2.69-.57-5.37-.95-8.05-1.14-2.67-.19-5.13-.37-7.35-.55-2.23-.18-4.04-.52-5.44-1.02-1.4-.5-2.17-1.32-2.31-2.45-.09-.76.09-1.48.55-2.18.46-.69,1.29-1.31,2.51-1.84,1.21-.53,2.89-.92,5.03-1.18,2.9-.35,5.92-.3,9.08.15,3.15.45,6.47,1.3,9.94,2.54l4.76-16.97c-3.7-1.53-7.78-2.51-12.24-2.93-4.46-.42-8.93-.36-13.4.18-6.8.82-12.37,2.52-16.69,5.08-4.32,2.57-7.43,5.68-9.32,9.32-1.89,3.65-2.59,7.52-2.1,11.61.43,3.53,1.44,6.39,3.05,8.59,1.61,2.2,3.59,3.9,5.93,5.08,2.35,1.19,4.88,2.06,7.6,2.63,2.72.57,5.4.96,8.05,1.18,2.65.22,5.09.44,7.32.65,2.23.21,4.05.58,5.46,1.11,1.41.53,2.18,1.4,2.33,2.59.09.76-.11,1.44-.62,2.04-.5.6-1.35,1.12-2.54,1.55s-2.86.78-5,1.04c-3.65.44-7.48.35-11.49-.29-4.01-.63-7.69-1.67-11.06-3.12l-5.22,17.12c3.58,1.61,8.03,2.74,13.35,3.37,5.32.64,10.75.62,16.29-.05,6.86-.83,12.44-2.54,16.73-5.14,4.29-2.59,7.38-5.72,9.27-9.36,1.89-3.65,2.59-7.49,2.11-11.52-.42-3.46-1.43-6.28-3.03-8.45Z"/></g></svg>