<?xml version="1.0" encoding="UTF-8"?><svg id="foul-game-ind" xmlns="http://www.w3.org/2000/svg" viewBox="0 0 411.63 559.01"><defs><style>.black{fill:#131314;}</style></defs><g id="foul-game-ind-layer"><path class="black" d="M339.62,44.07c-5.02-8.45-15.94-11.22-24.39-6.2,0,0,0,0,0,0-8.45,5.02-11.22,15.94-6.2,24.39,0,0,0,0,0,.01,5.02,8.45,15.94,11.22,24.39,6.2,8.45-5.02,11.23-15.94,6.21-24.39,0,0,0,0,0-.01ZM331.93,65.95s0,0,0,0c-7.06,4.2-16.18,1.87-20.38-5.19-4.2-7.06-1.87-16.18,5.18-20.38,0,0,0,0,.01,0,7.06-4.19,16.18-1.87,20.37,5.19,0,0,0,0,0,0,4.2,7.06,1.88,16.18-5.18,20.38ZM275.09,27.53c-.95-1.6-.42-3.66,1.17-4.61,0,0,0,0,0,0,1.6-.95,3.66-.43,4.61,1.17,0,0,0,0,0,0,.95,1.6.42,3.67-1.18,4.62-1.6.95-3.66.43-4.61-1.17,0,0,0,0,0,0ZM327.19,51.59c.95,1.6.42,3.67-1.18,4.62-1.6.95-3.66.43-4.61-1.17,0,0,0,0,0,0-.95-1.6-.42-3.66,1.17-4.61,0,0,0,0,0,0,1.6-.95,3.66-.43,4.61,1.17,0,0,0,0,0,0ZM261.82,29.91s0,0,0,0c-.48-.8-.21-1.83.59-2.31,0,0,0,0,0,0,.8-.48,1.83-.21,2.31.59,0,0,0,0,0,0,.47.8.21,1.83-.59,2.31-.8.48-1.83.21-2.31-.59ZM258.07,31.85c-.8.48-1.83.21-2.31-.59,0,0,0,0,0,0-.48-.8-.21-1.83.59-2.31,0,0,0,0,0,0,.8-.48,1.83-.21,2.31.59,0,0,0,0,0,0,.47.8.21,1.83-.59,2.31ZM290.59,9.79c-.47-.8-.21-1.83.59-2.31,0,0,0,0,0,0,.8-.48,1.83-.21,2.31.59,0,0,0,0,0,0,.47.8.21,1.83-.59,2.31-.8.48-1.83.21-2.31-.59,0,0,0,0,0,0ZM286.03,15.92c-.48-.8-.21-1.83.59-2.31,0,0,0,0,0,0,.8-.48,1.83-.21,2.31.59,0,0,0,0,0,0,.47.8.21,1.83-.59,2.31-.8.48-1.83.21-2.31-.59,0,0,0,0,0,0ZM263.63,13.19s0,0,0,0c.47.8.21,1.83-.59,2.31-.8.48-1.83.21-2.31-.59,0,0,0,0,0,0-.48-.8-.21-1.83.59-2.31,0,0,0,0,0,0,.8-.48,1.83-.21,2.31.59ZM270.39,16.31c-.48-.8-.21-1.83.59-2.31,0,0,0,0,0,0,.8-.48,1.83-.21,2.31.59,0,0,0,0,0,0,.47.8.21,1.83-.59,2.31-.8.48-1.83.21-2.31-.59,0,0,0,0,0,0ZM274.25,7.14c-.48-.8-.21-1.83.59-2.31,0,0,0,0,0,0,.8-.48,1.83-.21,2.31.59,0,0,0,0,0,0,.47.8.21,1.83-.59,2.31-.8.48-1.83.21-2.31-.59,0,0,0,0,0,0ZM411.41,47.45c-.25-1.42-.78-2.85-1.54-4.09-.75-1.25-1.7-2.32-2.74-3.25-1.05-.92-2.2-1.69-3.41-2.31-1.2-.63-2.44-1.11-3.67-1.51-1.24-.4-2.48-.7-3.7-.97-1.23-.27-2.45-.47-3.47-.72-1.04-.26-1.93-.6-2.58-1.08-.68-.49-1.12-1.11-1.22-1.65-.13-.55.01-1.5.32-2.64.27-1.1.6-2.2.98-3.31,1.48-4.41,3.61-8.83,4.92-13.76.31-1.21.65-2.51.68-4.04.01-.76-.06-1.58-.32-2.42-.25-.83-.7-1.64-1.28-2.31-.58-.67-1.28-1.19-1.98-1.57-.71-.38-1.42-.64-2.13-.82-1.4-.37-2.81-.48-4.09-.47-5.04-.02-10.03.69-14.86,2.08-4.81,1.4-9.52,3.48-13.6,6.66-1.01.8-1.99,1.65-2.89,2.59-.91.94-1.76,1.94-2.5,3.03-.75,1.08-1.42,2.23-1.96,3.45-.56,1.21-.97,2.49-1.31,3.67-.34,1.19-.62,2.3-1.02,3.21-.38.93-.9,1.63-1.58,2.27-.18.16-.35.29-.57.47l-.5.43c-.15.14-.28.29-.41.43-.28.29-.48.58-.71.88-.2.3-.41.6-.58.92-.52.92-.93,1.89-1.2,2.91l-2.31-3.91c-7.26-12.2-23.01-16.23-35.25-9.03l-19.78,11.72s0,0,0,0c-.7.41-.93,1.32-.52,2.02l.12.19c.69,1.41.19,3.11-1.15,3.92h0s0,0,0,0h0c-1.43.84-3.26.38-4.11-1.04,0,0,0-.01-.01-.02-.42-.7-1.32-.92-2.01-.51l-28.03,16.6s0,0,0,0c-.7.41-.93,1.32-.52,2.02l11.37,19.14c.34.58,1.03.85,1.67.66l17.49-5.01c14.9-4.27,16.96-3.1,25.66,1.85,1.78,1.01,3.82,2.17,6.32,3.49,7.8,4.47,17.72,4.73,26-.19,7.98-4.74,12.46-13.12,12.6-21.76,1.82.38,3.71.07,5.31-.88,1.14-.67,2.03-1.6,2.65-2.67.51.12.98.27,1.42.46.84.36,1.59.88,2.3,1.56.7.68,1.35,1.48,1.92,2.39.15.21.28.46.42.69.14.24.28.46.41.71.26.49.53.99.72,1.45.83,1.89,1.24,4,1.26,6.13.02,2.15-.34,4.3-1.02,6.4-.68,2.15-1.71,4.47-2.22,7.19-.25,1.37-.34,2.85-.14,4.31.2,1.46.67,2.98,1.6,4.34.93,1.37,2.33,2.44,3.85,3.03,1.53.57,3.09.7,4.51.59,1.43-.1,2.77-.4,4.04-.78.63-.2,1.26-.4,1.86-.64.61-.23,1.16-.46,1.75-.7,4.59-1.93,9.02-4.34,13.05-7.35,4.04-2.98,7.68-6.58,10.64-10.7,1.49-2.05,2.78-4.25,3.9-6.53,1.1-2.3,1.99-4.7,2.64-7.18.63-2.49,1.07-5.21.57-8.08ZM346.06,36.92c2.14-1.27,4.9-.57,6.17,1.57l.25.43h0c-2.04-.24-4.09.38-5.66,1.71l-1.73-2.95c.28-.3.61-.56.96-.77ZM306.54,23.05s.09-.05.13-.08c10.9-6.33,24.88-2.62,31.21,8.28,0,0,0,0,0,0h0s0,0,0,0c-8.16-5.05-18.46-5.14-26.71-.23l-18.43,10.96-4.72-7.96,18.53-10.97ZM285.19,40.89h0s0,0,0,0h0c.91-.54,1.65-1.31,2.16-2.23l3.6,6.07c.84,1.43.37,3.27-1.04,4.13h0s0,0,0,0h0c-1.43.84-3.26.38-4.12-1.04h0s0,0,0,0h0s-3.61-6.09-3.61-6.09c1.06,0,2.1-.29,3.02-.83ZM252.29,55.18l25.51-15.1,4.53,7.65-25.31,15.45-4.73-7.99ZM278.72,67.39l-16.4,4.69-3.68-6.18,15.86-9.68,9.68-5.75c1.92,1.91,4.89,2.29,7.23.91h0s0,0,0,0h0c2.33-1.39,3.43-4.18,2.66-6.79l8.24-4.9c-4.91,7.91-5.35,18.21-.27,26.76,0,0,0,.01.01.02.15.25.31.5.47.75-6.53-3.42-10.29-3.71-23.81.17ZM335.59,72.45s0,0-.01,0c-10.58,6.29-24.25,2.81-30.54-7.77-6.29-10.58-2.81-24.25,7.77-30.54,0,0,.01,0,.02,0,10.58-6.28,24.25-2.8,30.53,7.78,0,0,0,0,0,0,6.29,10.58,2.81,24.25-7.76,30.54ZM349.83,50.59c-.13-1.26-.36-2.52-.68-3.77.57.65,1.33,1.27,2.19,1.71.87.46,1.81.75,2.68.93.23.05.45.09.67.13-1.23,1.23-3.13,1.68-4.85,1ZM353.97,45.42c-1.08-.15-1.84-.41-2.4-.59-.73-.21-1.46-.64-2.16-1.17-.27-.22-.55-.46-.81-.7.19-.16.39-.3.6-.42,1.21-.71,2.68-.82,3.98-.3,1.49.6,2.47,1.91,2.74,3.38-.75-.07-1.4-.11-1.95-.19ZM406.31,56.08c-.35,1.09-.74,2.17-1.19,3.22-.89,2.12-2.01,4.14-3.26,6.08-2.55,3.86-5.74,7.29-9.4,10.18-3.65,2.91-7.72,5.29-12.02,7.22-1.07.48-2.18.94-3.24,1.35-1.06.4-2.12.71-3.17.91-1.04.2-2.07.26-2.98.13-.92-.12-1.67-.47-2.3-.98-.6-.52-1.06-1.25-1.34-2.14-.29-.88-.37-1.89-.31-2.89.06-.98.3-2.06.62-3.13.32-1.08.73-2.19,1.14-3.36.2-.58.41-1.18.6-1.79l.27-.94.24-.96c.29-1.28.48-2.59.56-3.91.16-2.64-.14-5.34-1.01-7.9-.22-.64-.47-1.27-.76-1.88-.29-.61-.58-1.16-.9-1.73-.64-1.13-1.38-2.25-2.26-3.29-.88-1.04-1.94-2.02-3.18-2.77-1.09-.67-2.31-1.13-3.49-1.41-.05-1.18-.38-2.36-1.03-3.45l-3.27-5.53c-.21-.35-.45-.69-.71-1-1.77-2.1-4.46-2.97-6.99-2.52.23-.53.51-1.04.84-1.47l.2-.26c.07-.08.13-.14.2-.22l.1-.11.08-.07c.07-.05.06-.06.25-.21.29-.24.59-.46.87-.74l.42-.41.39-.44c1.04-1.2,1.69-2.66,2.12-3.94.43-1.3.7-2.47,1.04-3.53.16-.54.35-1.04.55-1.53.09-.25.22-.49.33-.73.11-.24.22-.49.36-.72.49-.95,1.09-1.85,1.76-2.71.66-.86,1.41-1.66,2.22-2.42,3.24-3.02,7.37-5.21,11.72-6.7,4.37-1.49,9-2.35,13.63-2.55.58-.02,1.16-.04,1.73-.04h.86c.27,0,.53.02.79.04,1.03.08,2.02.28,2.77.62.76.35,1.19.78,1.41,1.32.23.54.26,1.41.09,2.41-.08.5-.21,1.04-.35,1.6-.13.55-.3,1.1-.45,1.66-.34,1.1-.72,2.21-1.12,3.32-.82,2.22-1.75,4.46-2.61,6.79-.43,1.17-.84,2.35-1.21,3.57-.18.61-.36,1.22-.51,1.85-.16.62-.32,1.23-.43,1.97-.12.73-.18,1.56-.05,2.47.14.92.5,1.81.99,2.53.97,1.46,2.33,2.41,3.73,3.02,1.38.6,2.73.87,3.94,1.11,1.2.23,2.33.46,3.45.74,2.22.56,4.31,1.32,6.05,2.48,1.74,1.15,3.16,2.71,3.84,4.48.7,1.76.68,3.89.28,6.05-.19,1.08-.5,2.19-.83,3.28ZM286.7,21.09l13.42-8.61c.09-.06.23-.03.39.09.16.12.31.3.43.52l1.11,2c.27.5.32.98.11,1.11l-13.37,8.52c-.18.12-.45.08-.76-.11l-.15-.09c-.21-.13-.42-.41-.53-.7l-.68-1.78c-.17-.46-.16-.83.03-.96ZM257.28,38.76c-.25-.51-.29-.98-.09-1.1l12.89-7.52c.18-.1.43-.05.72.16l.14.1c.2.14.4.43.5.72l.62,1.8c.16.46.14.83-.05.94l-12.94,7.6c-.09.05-.22.01-.37-.11-.15-.12-.29-.32-.4-.54l-1.03-2.04ZM278.05,16.02l5-15.41c.03-.1.16-.17.36-.18.19-.01.43.03.66.13l2.13.85c.53.21.87.56.79.8l-5.01,15.31c-.07.21-.3.35-.66.41l-.17.03c-.24.04-.59-.05-.86-.2l-1.65-.95c-.42-.24-.65-.55-.58-.77ZM261.24,2.12c-.04-.06.01-.17.14-.3s.32-.27.54-.39l1.99-1.12c.49-.28.94-.39,1.03-.25l5.54,8.52c.08.12,0,.32-.22.58l-.11.12c-.15.17-.44.37-.72.5l-1.72.77c-.44.2-.78.24-.86.12l-5.6-8.55ZM267.9,24.83l-16.21-1.85c-.11-.01-.2-.13-.25-.31-.05-.19-.05-.43,0-.67l.41-2.25c.1-.56.37-.96.63-.93l16.12,1.88c.22.03.41.23.53.57l.06.17c.08.23.07.58-.03.88l-.61,1.81c-.16.46-.41.74-.64.72ZM18.74,462.94l-6.74-10.89-8.6,5.32-3.4-5.5,23.61-14.61,11.04,17.84-4.38,2.71-7.64-12.34-6.24,3.86,6.74,10.89-4.38,2.71ZM47.86,482.91c.81-1.72,1.25-3.52,1.32-5.41.06-1.89-.24-3.75-.93-5.6-.69-1.84-1.76-3.59-3.2-5.24-1.45-1.65-3.05-2.93-4.8-3.84-1.75-.91-3.56-1.45-5.44-1.63-1.88-.18-3.72.02-5.52.6-1.8.58-3.48,1.55-5.05,2.93-1.55,1.36-2.73,2.9-3.54,4.62-.81,1.72-1.25,3.52-1.32,5.41-.07,1.89.24,3.76.93,5.62.68,1.86,1.75,3.62,3.2,5.27,1.43,1.63,3.02,2.9,4.76,3.82,1.74.92,3.55,1.47,5.43,1.64,1.88.18,3.73-.03,5.55-.62,1.82-.59,3.5-1.57,5.05-2.93,1.57-1.38,2.76-2.93,3.57-4.65ZM43.15,476.56c-.08,1.13-.38,2.21-.9,3.24-.51,1.04-1.27,1.99-2.26,2.86-.99.87-2.04,1.5-3.13,1.88-1.09.38-2.2.54-3.33.47-1.13-.06-2.2-.34-3.22-.84-1.02-.5-1.94-1.21-2.76-2.15-.82-.93-1.42-1.94-1.79-3.02-.37-1.08-.51-2.18-.42-3.3.09-1.12.4-2.19.91-3.23.52-1.03,1.27-1.99,2.27-2.86.99-.87,2.04-1.5,3.13-1.88,1.09-.38,2.2-.54,3.32-.49,1.12.05,2.19.33,3.22.84,1.03.51,1.95,1.23,2.77,2.16.82.93,1.41,1.94,1.77,3.01.36,1.07.5,2.17.42,3.3ZM66.8,507.96c-2.57,3.2-5.4,4.96-8.51,5.28s-6.18-.74-9.24-3.19c-3.07-2.47-4.79-5.25-5.15-8.35-.36-3.1.74-6.25,3.31-9.45l9.71-12.1,5.04,4.05-9.61,11.97c-1.64,2.04-2.4,3.86-2.29,5.46.11,1.6.91,3,2.42,4.21,1.53,1.22,3.08,1.72,4.66,1.48,1.58-.24,3.19-1.38,4.83-3.42l9.61-11.97,4.92,3.95-9.7,12.1ZM74.79,521.11l11.91,7.06-2.67,4.5-17.47-10.36,14.16-23.88,5.56,3.3-11.49,19.38ZM129.19,535.54l-3.79,10.61c-1.84.58-3.79.82-5.86.71-2.07-.11-4.03-.49-5.9-1.16-2.07-.74-3.85-1.75-5.36-3.03-1.51-1.28-2.68-2.76-3.51-4.44-.83-1.67-1.31-3.46-1.43-5.36-.12-1.9.17-3.83.87-5.8.7-1.97,1.7-3.64,3-5.03,1.3-1.39,2.81-2.46,4.54-3.22,1.73-.76,3.58-1.15,5.56-1.19,1.98-.04,4.01.32,6.11,1.07,2.31.83,4.26,1.96,5.84,3.39,1.58,1.43,2.74,3.11,3.48,5.04l-5.13,2.21c-.61-1.37-1.38-2.5-2.33-3.38s-2.09-1.57-3.44-2.05c-1.24-.44-2.46-.65-3.66-.61-1.19.04-2.3.29-3.33.77-1.03.47-1.93,1.15-2.7,2.02-.78.88-1.39,1.93-1.83,3.18-.43,1.19-.62,2.38-.58,3.56.04,1.18.31,2.28.8,3.3.49,1.02,1.18,1.93,2.06,2.72.88.79,1.95,1.41,3.19,1.86,1.2.43,2.43.64,3.71.65.46,0,.93-.04,1.41-.11l2.74-7.67,5.53,1.98ZM146.56,525.76l-17.64,24.74,6.45,1.32,3.61-5.33,12.6,2.57,1.23,6.32,6.6,1.35-6.65-29.69-6.22-1.27ZM141.95,542.1l6.43-9.49,2.19,11.25-8.63-1.76ZM192.41,531.01l5.35.27-1.41,27.73-5.98-.3.77-16.54-8.86,13.15-2.85-.14-7.48-13.8-.83,16.35-5.98-.3,1.41-27.73,5.31.27,9.51,17.74,11.05-16.7ZM226.71,556.75l-21.43,1.72-2.23-27.67,20.91-1.68.41,5.14-14.55,1.17.48,5.97,12.85-1.03.4,5.02-12.85,1.03.51,6.41,15.06-1.21.41,5.14Z"/></g></svg>