<?xml version="1.0" encoding="UTF-8"?><svg id="half-indic" xmlns="http://www.w3.org/2000/svg" viewBox="0 0 387.22 577.5"><defs><style>.black{fill:#131314;}</style></defs><g id="half-indic-layer"><path class="black" d="M37.94,488.72l-21.57,17.85-4.13-4.99,8.84-7.32-8.09-9.77-8.84,7.32-4.16-5.02,21.57-17.86,4.16,5.02-8.5,7.04,8.09,9.77,8.5-7.04,4.13,4.99ZM53.08,501.94l-8.57,29.47-5.18-4.41,1.99-6.19-9.88-8.4-5.79,2.95-5.06-4.3,27.62-13.27,4.88,4.15ZM42.94,515.74l3.53-11.01-10.3,5.26,6.76,5.75ZM64.29,510.69l-15.2,23.52,17.2,11.11,2.87-4.43-11.73-7.58,12.33-19.08-5.48-3.54ZM100.12,536.94l2.33-4.65-18.92-9.47-12.53,25.04,5.83,2.92,4.56-9.12,11.55,5.78,2.33-4.65-11.55-5.78,3.31-6.62,13.09,6.55ZM126.36,541.09l-22.93-8.35-1.81,4.96,8.42,3.07-7.78,21.35,6.09,2.22,7.78-21.35,8.42,3.07,1.81-4.96ZM121.44,568.5l6.29,1.71,7.35-27.02-6.29-1.71-7.35,27.02ZM153.24,564.52l-7.84-18.72-5.3-.78-4.08,27.7,5.98.88,2.41-16.34,6.18,14.57,2.85.42,10.16-12.35-2.36,16.53,5.98.88,4.08-27.7-5.34-.79-12.7,15.7ZM198.32,571.91l-15.24.27-.12-6.48,13-.23-.09-5.08-13,.23-.11-6.04,14.72-.26-.09-5.2-21.16.38.5,28,21.68-.39-.09-5.2ZM362.18,132.48l-18.95-37.03c1.03-.65,1.79-1.62,2.17-2.79.43-1.32.31-2.73-.32-3.97-.63-1.24-1.71-2.15-3.03-2.58-1.17-.38-2.41-.33-3.53.12l-18.95-37.03c22.88-11.42,50.85-2.28,62.53,20.54,11.68,22.82,2.74,50.85-19.91,62.73ZM348.94,58.62l-.49-.12c-6.27-1.55-12.79-1.26-18.86.82l-.52.18,11.44,22.35.2.25.63.04,7.59-23.51ZM347.4,85.38l22-11.26-.26-.43c-3.77-6.23-9.35-10.97-16.14-13.71l-.47-.19-7.59,23.5.31.2c.71.45,1.35.99,1.91,1.62l.24.27ZM349.4,91.59l-.02.37,23.51,7.59.12-.49c1.75-7.11,1.17-14.41-1.68-21.11l-.2-.47-22,11.26.08.36c.18.83.25,1.67.2,2.49ZM359.84,118.43c5.24-3.71,9.28-8.83,11.69-14.82l.19-.47-23.16-7.48-.39-.08-.19.33.39.27h0l-.4-.25-.14.23,11.56,22.58.45-.32ZM361.13,122.14l2.6,5.08.44-.29c18.29-12.08,24.55-35.92,14.55-55.45-10-19.53-32.99-28.4-53.49-20.63l-.49.19,2.6,5.08.39-.14c17.64-6.42,37.39,1.36,45.95,18.09,8.56,16.73,3.32,37.3-12.2,47.85l-.35.23ZM314.51,12.27l-14.97,38.81c-1.17-.33-2.4-.25-3.53.25-1.27.56-2.24,1.59-2.74,2.88-.5,1.3-.47,2.71.1,3.98.5,1.12,1.36,2.02,2.45,2.55l-14.97,38.81c-23.77-9.44-35.59-36.39-26.37-60.3,9.23-23.92,36.08-35.94,60.03-26.98ZM268.28,71.38l.24.45c3.03,5.7,7.59,10.37,13.18,13.51l.48.27,9.03-23.42.05-.32-.39-.5-22.58,10.01ZM289.24,54.69l-23.06-8.9-.15.49c-2.13,6.97-1.95,14.29.54,21.17l.17.48,22.58-10.01-.06-.36c-.14-.82-.16-1.67-.06-2.5l.04-.36ZM292.54,49.05l.29-.23-10.01-22.58-.45.24c-6.46,3.43-11.52,8.73-14.61,15.33l-.22.46,23.06,8.89.21-.3c.49-.69,1.07-1.3,1.73-1.81ZM305.59,23.38c-6.25-1.43-12.77-1.03-18.84,1.16l-.48.17,9.86,22.25.2.34.38-.08-.06-.47h0l.08.47.26-.05,9.13-23.67-.53-.12ZM307.49,19.95l2.05-5.32-.51-.13c-21.2-5.58-43.14,5.65-51.04,26.12-7.89,20.47.83,43.52,20.28,53.62l.47.24,2.05-5.32-.37-.2c-16.54-8.87-23.91-28.77-17.14-46.31,6.76-17.53,25.59-27.34,43.8-22.8l.41.1ZM332.31,36.55c5.38-1.51,10.43-1.28,13.44-1.14l1.28.06c2.06.1,4.18.2,6.3-.33,2.32-.59,5.07-2.26,5.85-5.19.71-2.66-.53-5.69-3.02-7.36-2.04-1.37-4.8-1.8-7.57-1.2h0c-3.28.72-13.42,5.66-17.87,13.07-.3.5-.26,1.13.09,1.59.27.36.69.56,1.13.56.13,0,.26-.02.38-.05ZM354.58,24.94c1.45.97,2.25,2.81,1.86,4.28-.47,1.75-2.34,2.8-3.8,3.17-1.71.43-3.53.34-5.46.25l-1.29-.06c-2.47-.11-6.23-.28-10.51.41,4.38-4.79,11.24-8.26,13.83-8.83h0c2.02-.44,3.98-.16,5.38.78ZM325.35,21.2c5.8-2.79,10.16-9.97,10.92-12.36h0c.66-2.08.52-4.22-.39-5.89-1.12-2.06-3.41-3.25-5.55-2.89-1.97.33-3.68,1.92-4.47,4.15-.55,1.56-.62,3.14-.69,4.67l-.04.94c-.1,2.18-.28,5.83-1.72,9.59-.21.54-.06,1.16.36,1.55.27.25.61.37.96.37.21,0,.42-.05.62-.14ZM333.4,4.31c.54.99.6,2.33.17,3.68h0c-.53,1.67-3.07,5.77-6.37,8.6.58-2.66.69-5.01.76-6.62l.04-.95c.06-1.38.12-2.69.53-3.85.33-.94,1.13-2.11,2.27-2.31.1-.02.2-.02.3-.02.87,0,1.81.59,2.29,1.47ZM334.92,8.42h0,0ZM294.46,118.8c2.32-.79,4.34-2.73,5.54-5.3h0c1.41-3.05,3.61-14.11.42-22.14-.21-.54-.74-.89-1.32-.89h0c-.58,0-1.1.36-1.32.9-2.06,5.2-5.29,9.07-7.23,11.39l-.83.99c-1.32,1.58-2.69,3.2-3.55,5.21-.93,2.2-1.27,5.4.59,7.8,1.22,1.57,3.21,2.45,5.29,2.45.8,0,1.61-.13,2.39-.4ZM297.42,112.31h0c-.87,1.88-2.29,3.27-3.88,3.81-1.65.57-3.6.09-4.53-1.11-1.11-1.43-.81-3.56-.22-4.95.69-1.62,1.86-3.02,3.11-4.5l.83-.99c1.58-1.9,4-4.79,6.04-8.61,1.16,6.38-.23,13.95-1.35,16.35ZM298.71,112.9h0,0ZM331.52,134.14c2.97-.64,4.76-3.31,5.46-5.6.63-2.09.63-4.21.63-6.27v-1.29c0-3.02,0-8.07,1.77-13.37.18-.55.01-1.16-.43-1.53-.45-.37-1.07-.44-1.58-.16-7.6,4.11-13.01,14-13.88,17.24h0c-.74,2.74-.43,5.52.84,7.62,1.32,2.17,3.64,3.49,5.96,3.49.42,0,.84-.04,1.25-.13ZM334.77,120.98v1.3c0,1.93,0,3.76-.5,5.44-.44,1.45-1.58,3.27-3.35,3.65-1.48.32-3.28-.56-4.19-2.06-.87-1.44-1.06-3.42-.53-5.41h0c.69-2.56,4.47-9.25,9.46-13.4-.89,4.24-.89,8.01-.9,10.48ZM324.83,123.53h0,0ZM316.23,80.47c1.09-1.55,1.47-3.67,1.05-5.81h0c-.49-2.46-4.02-10.08-9.46-13.51-.49-.31-1.12-.29-1.59.05s-.68.94-.54,1.5c1.01,3.9.77,7.54.62,9.72l-.06.94c-.11,1.53-.21,3.11.16,4.72.54,2.3,2.06,4.08,3.97,4.63.43.12.87.18,1.31.18,1.72,0,3.46-.9,4.53-2.43ZM314.49,75.21h0c.27,1.38.06,2.71-.59,3.63-.64.92-1.82,1.41-2.74,1.15-1.11-.32-1.77-1.57-2-2.55-.28-1.2-.19-2.5-.09-3.88l.06-.95c.11-1.61.26-3.95-.01-6.66,2.96,3.18,5.02,7.54,5.36,9.26ZM323.38,105.26c.92-1.37,1.39-2.88,1.83-4.35l.28-.9c.64-2.09,1.72-5.58,4.06-8.86.34-.47.35-1.1.03-1.59-.31-.49-.89-.73-1.47-.62-6.31,1.26-12.33,7.12-13.66,9.24-1.16,1.85-1.56,3.96-1.1,5.8.57,2.28,2.49,4,4.66,4.18.13.01.26.02.4.02,1.86,0,3.73-1.09,4.97-2.92ZM322.78,99.18l-.28.91c-.4,1.32-.79,2.57-1.47,3.59-.56.83-1.63,1.76-2.78,1.67-.95-.08-1.87-.96-2.15-2.05-.27-1.09,0-2.41.75-3.6h0c.93-1.48,4.41-4.82,8.32-6.73-1.22,2.44-1.92,4.69-2.39,6.22ZM315.66,98.93h0,0Z"/></g></svg>