<?xml version="1.0" encoding="UTF-8"?><svg id="Layer_2" xmlns="http://www.w3.org/2000/svg" viewBox="0 0 95.35 40.42"><defs><style>.cls-1{fill:#006837;stroke-width:0px;}</style></defs><g id="Layer_1-2"><path class="cls-1" d="M94.7,13.08c-.43.03-.85.07-1.28.11l-.02.24c-.18-.06-.36-.13-.54-.19-2.56.2-5.11.45-7.66.75-1.32.17-2.67.26-3.92.64-1.03.3-6.9,1.09-12.82,2.09-5.93.97-11.91,2.14-13.29,2.35-1.72.25-3.44.52-5.15.82l-2.57.46-.32.06c-.08.01-.05,0-.08,0h-.11s-.25,0-.25,0c-.35,0-.83.04-1.22.35-.38.27-.6.94-.23,1.22.21.15.59.06.63.27.04.12.17.22.35.32l.29.15.08.04.15.07.45.19c1.27.55,2.45,1.32,3.42,2.27,1.34,1.32,2.33,2.98,2.85,4.78.51,1.77.56,3.61.26,5.32-.3,1.71-1.11,3.22-2.04,4.53-.87,1.18-1.28.04-1.16-.4.31-1.34-.53-.51-.9-.57-.13-.02-.29-.04-.36-.14-.05-.05.32-1.01.49-2.45.19-1.43.1-3.37-.65-4.93-.69-1.52-2.05-2.7-3.17-3.14-.29-.12-.51-.19-.81-.27-.16-.03-.21-.07-.65-.09-.35-.01-.66-.06-.99-.05-.67.02-1.23.02-1.66-.02-.45-.02-.76-.06-.95-.1-.09-.02-.85-.14-1.69-.45-.83-.35-1.78-.72-2.75-1.98-.48-.63-.85-1.53-.98-2.51-.14-.98-.03-2.04.3-3.03.68-2,2.09-3.59,4.57-4.76,1.24-.59,2.77-.98,4.29-1.35.96-.24,1.91-.48,2.83-.72,1.6-.41,3.14-.78,4.51-1.1,2.75-.64,4.84-1.12,5.55-1.29,1.48-.36,3.02-.5,4.53-.69.27-.03,3.26-.64,6.95-1.31-.3-.04-.59-.08-.89-.12-3.58-.41-7.19-.55-10.8-.64-.65-.02-1.3-.13-1.95-.18-.82-.04-1.64-.12-2.46-.11-8.54.08-17.13.41-25.54,2.05-.48.1-1.43.23-2.61.38-1.19.14-2.61.32-4.03.56-1.42.23-2.86.43-4.07.67-1.21.25-2.2.47-2.75.62-1.23.3-5.5.53-6.55.99-.33.14-.65.27-.97.38-.22.08-.44.16-.65.24-.44.16-.88.32-1.31.46-.43.15-.81.24-1.2.41-.41.21-.79.59-.91,1,.03.46-1.76.63-2.15-.52-.16-.55-.15-1.16,0-1.74.12-.56.48-1.22.81-1.7.69-.97,1.49-1.71,2.42-2.32.15-.09.55-.33,1.27-.61.15-.05.31-.11.48-.17.15-.05.31-.11.48-.17.34-.12.72-.24,1.13-.38,1.65-.56,3.81-1.3,6.15-1.94,4.64-1.41,9.93-2.59,12.62-3.18,5.21-1.11,10.51-1.8,15.84-2.13,2.7-.22,5.42-.28,8.13-.38,1.36-.03,2.71-.02,4.07-.03,1.36-.02,2.71,0,4.07.05,5.43.09,10.84.56,16.23,1.19,2.39.33,4.78.68,7.12,1.25,4.14.89,8.23,1.92,12.32,2.97.3,0,.6-.03.9-.03l-.02.26c.41.11.83.21,1.24.32l-.65,7.07Z"/></g></svg>