<?xml version="1.0" encoding="UTF-8"?><svg id="tm-score-encl" xmlns="http://www.w3.org/2000/svg" viewBox="0 0 947.64 260.07"><defs><style>.black{fill:#151516;}</style></defs><g id="tm-score-encl-layer"><path class="black" d="M901.66,174.33c.79,2.15,1.33,4.9,1.11,7.59-.36,4.24-2.46,6.81-4.45,7.64-1.99.83-4.09.53-6.01,1.91-5.77,4.12-8.6,21.95-14.68,21.29-2.63-.29-4.85-4.25-7.4-5.66-3.12-1.73-6.43.51-9.65-.11-.66-.13-1.38-.45-1.79-1.55-.57-1.51-.32-3.7-.47-5.61-.62-7.79-7.19-7.48-7.95-15.21-.6-6.08,2.92-9.96,5.74-11.6,2.62-1.52,5.25-3.05,7.87-4.57l-.12.12c8.17-6.16,18.02,4.44,26.92,1.05,1.58-.6,3.15-1.66,4.75-1.66,2.36,0,4.69,2.42,6.14,6.37ZM937.64,69.42l-13.22-4.99c-1.66-.6-3.34-1.21-5.02-1.82-1.69-.54-3.39-1.02-5.09-1.5-3.41-.95-6.86-1.8-10.32-2.56l-3.14-.66-10.61-2.14-10.61-1.76c-7.07-1.13-14.15-2.42-21.22-3.4l-21.21-2.76-5.3-.68-5.3-.52-10.6-1.04c-7.06-.7-14.13-1.42-21.18-1.82l-21.17-1.42c-14.09-.54-28.19-1.3-42.25-1.37-111.31-3.91-221.46,6.97-330.59,13.76-54.56,3.35-108.92,5.88-163.05,5.28-13.54.02-27.04-.57-40.56-.9l-20.24-1.01-10.12-.52-10.1-.77-20.21-1.56-20.17-2.08c-3.36-.37-6.73-.65-10.08-1.08l-10.06-1.33c-6.71-.92-13.42-1.71-20.13-2.72h-.05c-6.31-1.03-11.74.26-12.7,3.02l-11.25,32.14c-6.42,14.6-12.89,28.75-19.43,43.08-6.54,14.29-13.15,28.56-19.82,42.82-1.48,3.16-.29,6.94,3.38,10.7,9.18,9.38,18.41,18.9,27.69,28.2,4.88,4.79,14.28,8.79,24.56,10.45,30.84,4.47,61.67,7.83,92.46,9.77,30.78,1.87,61.53,2.77,92.21,2.72,30.67-.15,61.27-1.04,91.8-2.46,30.52-1.48,60.96-3.44,91.33-5.54,121.42-8.45,241.69-19.31,360.47-7.9,8.59.83,16.19-.81,18.69-4.38l12.2-17.21c3.42-4.71,4.8-9.93,4.06-15.44l-2.37-17.49c-.21-1.51.89-2.82,3.05-3.62l19.18-7.12c5.26-1.98,8.05-5.01,7.78-8.63-.7-9.59,11.04-16.46,30-17.08l8.11-.04c5.82-.02,10.29-1.36,12.37-3.7,2.08-2.34,1.59-5.47-1.37-8.69-2.62-2.84-1.36-5.39,3.03-6.12,2.34-.39,4.22-1.05,5.61-1.89,1.39-.8,2.3-1.82,2.69-3,.79-2.33-.44-5.41-3.89-8.42l-7.11-6.17c-2.28-1.98-2.83-4-1.46-5.43,1.37-1.43,4.49-2.08,8.4-1.77,7.29.68,14.58,1.68,21.88,2.52,5.94.71,10.05-.7,10.08-3.47.02-2.77-4.05-6.22-10.01-8.47ZM925.47,150.47c-.12-3.18-2.99-5.97-6.16-6.23-1.72-.14-3.78.26-4.89-1.06-1.07-1.27-.42-3.18-.51-4.83-.09-1.66-3.96-4.19-5.39-3.46-2.4,1.24-3.33,4.21-5.8,5.29-2.48,1.09-5.18,1.95-7.03,3.92-1.85,1.97-2.36,5.55-.21,7.19,2.55,1.96,6.6-.17,9.34,1.52,3.24,1.99,2.91,8.15,6.66,8.7,4.46.66,14.22-4.74,13.99-11.05ZM927.76,175.04c-1.98.43-3.26,1.67-4.08,3.49-1.21,2.71-1.88,6.21-2.73,9.07-.3,1.02-.28,2.22.42,3.01.7.79,1.92.94,2.94.65,1.02-.29,1.88-.94,2.73-1.58,2.48-1.88,4.95-3.77,7.43-5.65.57-.43,1.14-.87,1.58-1.42,4.2-5.25-4.21-8.45-8.29-7.56ZM41.06,23.77c6.46,1.26,12.77,2.19,19.07,3.12l9.46,1.41c3.15.47,6.31.84,9.47,1.26,6.31.83,12.62,1.67,18.95,2.34,25.29,2.9,50.63,5.07,76.03,6.46,25.4,1.36,50.85,2,76.32,1.78,25.47-.26,50.98-1.26,76.47-3.8,1.84-.14,3.57-.42,4.96-.71,1.39-.29,2.43-.59,2.92-.86l4.76-2.63c1.32-.73,1.77-1.39,1.31-1.94l-1.44-1.74c-.12-.15.3-.36,1.18-.59l7.75-2.01c2.1-.62,3.15-1.18,2.93-1.55-.57-.97,4-2.66,11.6-4.3l3.26-.7c2.33-.53,4.04-1.17,4.78-1.61.73-.46.41-.73-.89-.77-1.14-.03-.75-.43.95-.95,3.62-1.11,4.12-1.9,1.19-1.84l-3.01.07c-.97.02-1.26-.14-.78-.42.48-.29,1.66-.67,3.18-1.02l8.52-2c2.31-.54,3.82-1.11,3.69-1.4-.12-.29-1.84-.22-4.21.16l-5.25.85c-2.64.42-5.34.91-8.05,1.43-.41.09-.82.15-1.24.21-22.29,3.9-44.99,6.19-67.75,7.7-11.26.77-22.56,1.04-33.85,1.41l-16.97.2-4.24.05-4.24-.04-8.49-.07c-22.64-.25-45.29-1.07-67.9-2.63-22.61-1.52-45.19-3.55-67.67-6.26l-16.83-2.19c-2.81-.35-5.6-.77-8.4-1.19l-8.38-1.25c-5.62-.81-11.13-1.72-16.49-2.77-5.37-1.05-10.59-2.3-15.59-3.88h-.02C25.75.34,23.72-.14,23.31.04c-1.64.72-3.32,1.42-5.03,2.04C12.67,3.42,6.71,4.22.38,4.08c-.71,0-.43.64.83,1.86,3.15,3.04,6.59,5.83,10.21,8.36,1.9,1.31,5.78,3.22,10.14,4.61,6.52,2.09,13.06,3.62,19.5,4.85ZM758.1,238.34l-4.01-.63c-2.02-.32-4.1-.6-6.19-.84l-.95-.11c-17.14-1.66-34.3-2.94-51.47-3.46l-6.36-.29-6.36-.17c-4.24-.1-8.48-.25-12.72-.31-8.48-.06-16.96-.19-25.42-.06-8.47.02-16.93.27-25.39.46l-12.68.45-6.34.23-6.33.3c-33.77,1.56-67.39,4.2-100.92,7.01h-.02c-1.98.17-3.63.55-3.87.9l-2.79,4.01-9.94,11.2c-.37.41.08.77,1.26,1l8.85,1.77c1.55.31,4.42.34,7.5.07,36.99-3.14,73.92-6.03,110.82-7.53,18.45-.8,36.89-1.11,55.3-1.05,4.6.06,9.21.02,13.81.15l13.79.35c9.18.4,18.37.73,27.52,1.42,2.65.18,5,.04,5.78-.33,1.25-.6,2.51-1.22,3.76-1.8,1.05-.48,1.48-1.05,1.25-1.67l-.73-1.97c-.06-.17.27-.3.94-.37l5.88-.57c1.61-.16,2.46-.47,2.38-.88-.23-1.06,3.36-1.76,9.15-1.66l2.47.08c1.77.06,3.13-.04,3.76-.28.63-.24.47-.59-.44-.98-.8-.34-.43-.61.9-.65,2.84-.07,3.41-.7,1.3-1.44l-2.17-.76c-.7-.24-.87-.48-.46-.62.41-.14,1.35-.18,2.54-.11l6.63.43c1.8.12,3.03-.02,3.03-.32,0-.31-1.25-.72-3.06-1Z"/></g></svg>