<?xml version="1.0" encoding="UTF-8"?><svg id="b" xmlns="http://www.w3.org/2000/svg" viewBox="0 0 556.07 286.36"><g id="c"><path d="M530.81,279.67l-1.78-.35c-32.08-6.14-63.46-13.6-94.15-23.05-15.14-4.77-30.1-9.99-44.94-15.49-14.82-5.49-29.68-11.38-44.75-17.34-15.07-5.95-30.31-12-45.87-17.57-3.86-1.43-7.84-2.68-11.75-4.02-3.95-1.27-7.94-2.47-11.93-3.66-8.05-2.21-16.15-4.33-24.43-5.77-2.07-.36-4.12-.8-6.2-1.1l-6.26-.86-3.13-.42-3.15-.28-6.31-.53c-1.05-.11-2.1-.13-3.16-.16l-3.16-.09-3.16-.09c-1.05-.04-2.11-.06-3.16-.02-4.21.12-8.42.09-12.59.47-2.09.15-4.18.28-6.27.46l-6.23.74-3.11.37-3.09.5-6.17,1.01c-2.05.36-4.08.82-6.11,1.23-2.03.43-4.08.8-6.08,1.32-4.03.99-8.06,1.93-12.02,3.12-1.98.58-3.98,1.11-5.95,1.72l-5.89,1.88-2.94.95-2.91,1.03-5.82,2.05c-7.69,2.89-15.31,5.93-22.79,9.26-1.87.83-3.75,1.64-5.61,2.49l-5.55,2.59c-3.71,1.7-7.34,3.56-11.02,5.33l-10.86,5.54c-3.54,1.81-7.07,3.46-10.68,4.43h-.03c-3.4.96-6.28.9-6.74.89-1.79.16-3.72,0-5.36-.63-1.43-.62-2.75-1.69-3.67-3.09-.93-1.4-1.53-3.06-1.78-4.8-.48-3.44.39-7.33,3.04-10.02.28-.31.26-.32-.05-.05-.31.27-.94.8-1.66,1.77-1.77,2.44-2.67,5.47-2.61,8.53-.03.77.12,1.53.2,2.3.19.75.31,1.53.63,2.27.51,1.5,1.38,2.92,2.52,4.12.58.65,1.42,1.33,2.47,1.98.54.27,1.14.62,1.74.84.61.2,1.23.49,1.92.64,1.35.39,2.86.6,4.42.69,1.56.04,3.2,0,4.8-.28,4.84-.73,9.25-2.48,13.45-4.25,4.16-1.77,8.22-3.52,12.36-5.22,8.23-3.42,16.56-6.58,24.91-9.59,16.76-5.84,33.76-10.86,51.02-13.95,4.3-.86,8.63-1.43,12.95-2.06,2.16-.31,4.33-.47,6.5-.72l3.25-.34c1.08-.11,2.17-.14,3.25-.22l6.49-.39,6.49-.11c1.08,0,2.16-.05,3.24-.04l3.23.11c2.15.09,4.31.09,6.45.25,4.29.38,8.57.62,12.82,1.3l3.19.43c1.06.14,2.13.26,3.18.48l6.35,1.18c2.12.35,4.21.91,6.31,1.39,2.1.52,4.21.94,6.29,1.53,4.17,1.19,8.35,2.25,12.48,3.64,8.29,2.55,16.47,5.67,24.62,8.89,8.14,3.31,16.21,6.85,24.26,10.62,16.09,7.49,32.1,15.69,48.78,23.04,16.72,7.36,34.12,13.53,51.81,18.32,17.69,4.82,35.71,8.39,53.83,10.78,5.24.73,9.92.9,11.45.67l7.41-1.06c2.06-.3,2.87-.73,2.41-1.29l-1.47-1.82c-.13-.16.52-.22,1.8-.16,3.78.15,7.54.41,11.31.52,3.09.12,4.69.03,4.5-.28-.26-.42,1.31-.58,4.31-.49,3.01.03,7.45.39,12.96.89l4.72.4c3.39.31,5.94.47,7.09.44,1.14-.02.77-.18-1.02-.49-1.58-.28-.92-.35,1.59-.13,5.36.48,6.29.43,2.18-.34l-4.23-.81c-1.35-.26-1.71-.44-.97-.39.74.04,2.5.22,4.73.57l6.25.97,6.26.92c1.7.26,3.12.48,4.11.64s1.54.24,1.5.21-.67-.16-1.72-.38c-1.05-.21-2.52-.5-4.24-.81-2.55-.48-5.09-.88-7.62-1.41-1.91-.37-3.85-.74-5.8-1.11-1.95-.35-3.91-.71-5.87-1.12M449.03.5l-1.7-.06c-15.29-.49-30.55-.54-45.78-.32-15.23.25-30.44.7-45.72,1.61-15.12.81-30.29,2.06-45.42,4.24-15.14,2.19-30.21,5.34-45.11,9.33-3.73.96-7.43,2.1-11.14,3.14-3.69,1.15-7.39,2.26-11.06,3.47-3.66,1.25-7.34,2.43-10.97,3.74s-7.24,2.63-10.81,4c-14.3,5.45-28.16,11.37-41.96,16.92-27.81,11.04-55.73,21.89-84.12,30.91-7.1,2.25-14.23,4.36-21.39,6.22-7.16,1.85-14.37,3.54-21.56,4.6-3.6.56-7.19.9-10.69.98-3.54.07-6.78-.24-10.06-1.23-3.2-.99-6.28-2.47-8.47-4.64-2.2-2.14-3.44-4.9-3.13-8v-.02c.16-2.89,1.7-4.9,1.91-5.24.17-.36.37-.72.63-1.04.25-.32.48-.68.77-1,.59-.61,1.2-1.25,1.93-1.77,2.5-1.84,5.57-3.08,8.7-3.9,3.15-.83,6.41-1.27,9.68-1.41.72-.03-.02-.1-2.12-.17-2.62-.05-5.26.02-7.91.33-2.65.31-5.31.81-7.94,1.74-1.38.46-3.37,1.33-5.47,2.96-.26.21-.52.42-.79.64-.26.23-.5.51-.75.77-.25.27-.5.54-.76.82-.23.3-.44.62-.67.94-.22.33-.45.65-.65,1-.17.36-.34.73-.52,1.1-.39.74-.59,1.53-.81,2.34-.61,2.4-.64,4.97.01,7.46.65,2.48,1.98,4.74,3.61,6.58,3.3,3.68,7.55,5.94,11.87,7.4.54.19,1.09.37,1.64.52.56.15,1.09.34,1.67.44,1.14.22,2.31.52,3.42.62,1.12.14,2.26.3,3.36.34,1.11.06,2.23.15,3.32.14,4.39.08,8.7-.21,12.94-.66,16.99-1.86,33.37-5.72,49.63-9.88,16.24-4.23,32.28-9,48.21-14.07,7.97-2.52,15.9-5.14,23.81-7.81,7.9-2.64,15.87-5.44,23.68-8.23,15.67-5.56,31.05-11.09,46.71-14.9,15.69-3.88,31.7-6.5,47.79-8.82,32.19-4.52,64.87-8.5,97.87-13.38,4.77-.72,8.94-1.66,10.23-2.26,2.1-.96,4.21-1.9,6.32-2.81,1.77-.75,2.4-1.35,1.86-1.8l-1.72-1.45c-.15-.13.42-.33,1.58-.56,3.43-.68,6.86-1.34,10.29-1.96,2.81-.51,4.25-.92,4.01-1.19-.64-.72,5.56-1.94,15.8-2.79l4.39-.36c3.15-.25,5.52-.48,6.57-.66,1.05-.18.69-.28-1.01-.35-1.5-.06-.9-.22,1.44-.35,5-.27,5.86-.45,1.96-.64l-4.01-.21c-1.29-.07-1.64-.17-.95-.25.69-.07,2.34-.13,4.45-.1,3.93.04,7.86.11,11.79.26,1.6.06,2.93.11,3.87.15.93.04,1.45.06,1.41.03-.04-.02-.64-.08-1.63-.17-.99-.09-2.38-.2-4.01-.31l-7.22-.46c-3.63-.21-7.36-.39-11.1-.53M175.76,134.03l-.76-.04c-13.64-.51-27.06.24-40.37,1.65-6.59.63-13.15,1.46-19.65,2.63-6.5,1.15-12.94,2.67-19.37,4.24-6.43,1.58-12.86,3.15-19.32,4.54l-19.39,4.17-9.69,2.13c-1.58.35-3.32.74-4.94,1.13l-4.83,1.19c-6.35,1.57-12.64,3.1-18.78,3.84-3.03.36-6.11.51-8.57.07-1.21-.21-2.18-.6-2.59-.95-.15-.07-.18-.19-.3-.27-.03-.04-.04-.05-.08-.07-.02-.03-.03-.07-.07-.11-.09-.17-.15-.55-.1-1.04.09-.98.61-2.29,1.29-3.53.69-1.25,1.56-2.5,2.52-3.7,1.93-2.4,4.21-4.65,6.65-6.72h0c1.15-.99,2.15-1.81,2.28-1.99.51-.68,1.04-1.34,1.6-1.97,2.03-2.07,4.36-3.82,6.88-5.21.28-.16-.04-.07-.91.24-2.17.78-4.33,1.63-6.48,2.55-1.13.49-3.2,1.51-5.35,2.83-3.21,1.99-6.3,4.24-9.11,6.99-1.41,1.38-2.74,2.89-3.93,4.67-.58.9-1.13,1.87-1.58,2.98-.44,1.11-.79,2.39-.81,3.9,0,.75.1,1.56.33,2.37.13.4.29.8.46,1.19.19.34.38.68.59,1.01.87,1.28,2.01,2.31,3.15,2.99,2.3,1.4,4.51,1.92,6.61,2.32,4.2.72,8.1.68,11.95.53,7.66-.37,15.09-1.49,22.23-2.44l21.69-2.64c7.26-.9,14.5-1.87,21.79-2.6,7.28-.75,14.59-1.33,21.85-2.23,14.52-1.75,28.74-5.29,42.86-9.41,2.04-.61,3.8-1.39,4.31-1.87.84-.78,1.68-1.54,2.53-2.27.71-.61.93-1.09.65-1.44l-.9-1.13c-.08-.1.15-.27.65-.46,1.45-.57,2.91-1.11,4.37-1.63,1.2-.43,1.79-.76,1.66-.97-.35-.57,2.27-1.57,6.73-2.33l1.91-.32c1.37-.22,2.4-.42,2.85-.57.45-.15.28-.23-.48-.27-.67-.03-.42-.17.6-.29,2.19-.25,2.55-.4.8-.52l-1.8-.14c-.58-.05-.74-.12-.45-.19.3-.06,1.03-.12,1.96-.12,1.74,0,3.49.02,5.25.12,1.43.06,2.39.13,2.35.1s-1.08-.18-2.54-.33l-3.24-.31c-1.63-.14-3.3-.25-4.97-.33" fill="#fbb03c" stroke-width="0"/></g></svg>