<?xml version="1.0" encoding="UTF-8"?><svg id="b" xmlns="http://www.w3.org/2000/svg" viewBox="0 0 413.22 186.4"><g id="c"><path d="M377.98,173.83l-1.06-.19c-19.19-3.22-38.45-5.08-57.73-6.05-9.53-.59-19.07-.87-28.6-.84-9.54.06-19.07.48-28.6,1.04-9.53.52-19.06,1.13-28.58,1.53-9.52.46-19.05.85-28.57,1.39-19.04.98-38.06,2.35-57.07,3.8-19,1.48-37.99,3.2-56.95,5.11h-.02c-2.23.24-4.13.49-4.43.58-1.16.36-2.32.69-3.48,1-4.06.92-8.12,1.62-12.2,2.07-.45.05.02.07,1.33.09,3.28.03,6.56.1,9.85.22,1.73.06,4.97.1,8.48.09,21.06-.04,42.1-.04,63.14.07,21.03.12,42.06.34,63.07.57l15.76.21c5.25.1,10.5.24,15.76.42,10.5.39,21,.94,31.5,1.26,10.49.3,20.99.28,31.48-.1,10.5-.34,21-.89,31.51-1.61,3.04-.22,5.72-.65,6.58-1.02,1.39-.6,2.77-1.2,4.16-1.75,1.16-.46,1.6-.89,1.29-1.28l-.99-1.29c-.09-.11.29-.23,1.03-.32,2.2-.27,4.4-.52,6.61-.74,1.81-.18,2.74-.4,2.6-.63-.35-.62,3.63-1.11,10.14-.96l2.78.07c2,.06,3.51.07,4.18.02s.45-.17-.61-.36c-.94-.17-.55-.25.93-.16,3.16.2,3.72.13,1.28-.34l-2.51-.5c-.81-.16-1.02-.27-.58-.28.44,0,1.48.09,2.81.29,2.47.35,4.94.73,7.4,1.17,1,.18,1.83.33,2.42.44.58.11.91.16.88.14-.02-.02-.39-.12-1.01-.27-.62-.15-1.48-.36-2.5-.58l-4.51-.96c-2.27-.46-4.6-.92-6.95-1.33" fill="#fbb03c" stroke-width="0"/><path d="M393.96,6.04l-1.37-.16c-24.65-2.8-49.29-4.31-73.94-5.16-12.18-.48-24.37-.77-36.55-.71-12.18.04-24.37.46-36.55.93-12.18.48-24.37.94-36.55,1.23l-36.55.86c-24.37.58-48.74,1.34-73.11,2.1-24.37.77-48.74,1.61-73.11,2.55h-.02c-2.87.12-5.31.26-5.7.34-1.51.29-3.02.56-4.53.81-5.25.7-10.51,1.17-15.76,1.39-.58.02.02.08,1.69.16,4.19.22,8.39.47,12.58.76,2.2.15,6.35.37,10.84.56,26.96,1.06,53.91,1.99,80.87,2.87,26.96.88,53.91,1.66,80.87,2.31,13.48.33,26.96.6,40.43,1.1,13.48.49,26.96,1.14,40.43,1.47,26.96.71,53.91-.38,80.87-2.07,3.9-.26,7.33-.73,8.42-1.12,1.77-.63,3.53-1.24,5.3-1.81,1.48-.48,2.03-.92,1.62-1.31l-1.29-1.27c-.11-.11.36-.24,1.32-.34,2.82-.32,5.63-.61,8.45-.87,2.31-.22,3.5-.45,3.32-.68-.47-.62,4.62-1.17,12.95-1.17h3.57c2.56.02,4.49,0,5.35-.08.86-.07.57-.18-.79-.34-1.21-.14-.71-.24,1.19-.19,4.06.12,4.76.04,1.62-.38l-3.23-.44c-1.04-.14-1.32-.25-.75-.26.56,0,1.9.05,3.6.22,3.17.29,6.34.61,9.51.99,1.29.16,2.36.29,3.12.38.75.09,1.17.14,1.14.12-.03-.02-.51-.11-1.3-.25-.8-.13-1.91-.31-3.22-.51l-5.8-.85c-2.92-.41-5.92-.8-8.93-1.16" fill="#fbb03c" stroke-width="0"/></g></svg>