<?xml version="1.0" encoding="UTF-8"?><svg id="b" xmlns="http://www.w3.org/2000/svg" viewBox="0 0 225.95 197.8"><g id="c"><path d="M219.2,135.93l-.12.84c-1.1,7.57-2.87,14.68-6.13,20-3.21,5.32-7.89,8.83-13.73,11.59-5.81,2.63-12.57,4.32-19.66,5.96l-10.91,2.47c-3.65.83-7.32,1.63-11,2.36-7.36,1.5-14.81,2.68-22.32,3.4-7.51.71-15.04,1.12-22.61,1.24-15.16.28-30.66-.33-46.29-.16-7.82.11-15.68.44-23.51,1.22-7.83.75-15.64,2.06-23.24,4.08h-.01c-.9.24-1.72.46-2.35.65-.63.19-1.05.38-1.17.44-.87.53-1.75,1.03-2.62,1.5-3.11,1.41-6.08,3.02-9.17,4.22-.34.14.04.07,1.07-.18l3.88-.88c.65-.14,1.29-.29,1.94-.41l1.97-.28c.69-.1,1.67-.25,2.83-.45.58-.1,1.2-.2,1.85-.32.66-.08,1.34-.16,2.04-.25,8.35-1.19,16.76-1.53,25.18-1.38,8.42.18,16.84.83,25.29,1.65,16.89,1.63,33.94,3.99,51.54,4.45,8.77.26,17.54.04,26.34-.31,8.79-.37,17.63-.96,26.38-2.26,4.38-.66,8.68-1.45,13.17-2.58,4.46-1.14,8.97-2.63,13.42-4.66,4.44-2.02,8.86-4.62,12.86-8.01,2.01-1.66,3.86-3.62,5.58-5.66,1.64-2.13,3.17-4.36,4.33-6.77,1.42-2.76,1.98-5.41,1.92-6.3-.04-1.46-.25-2.89-.41-4.26-.15-1.15-.51-1.62-.95-1.45-.48.18-.94.35-1.45.5-.13.04-.14-.3-.1-.94.18-1.89.27-3.75.26-5.59,0-1.51-.15-2.29-.4-2.2-.68.21-.75-3-.82-8.23l-.05-2.24c-.06-1.61-.15-2.82-.26-3.36s-.21-.35-.31.52c-.09.77-.21.46-.24-.73-.05-2.55-.2-2.98-.45-.99l-.3,2.04c-.11.65-.21.83-.24.48-.02-.35-.03-1.18.07-2.25.15-1.99.28-4.01.45-6.04.13-1.65.24-2.77.21-2.73-.02.02-.07.33-.16.85-.07.52-.18,1.24-.3,2.08l-.5,3.71c-.12.93-.24,1.86-.39,2.8-.12.94-.25,1.87-.4,2.81" fill="#fbb03c" stroke-width="0"/><path d="M219.75,39.7c-.02-.31-.07-.61-.12-.92-.59-4.16-2.13-8.14-4.26-11.75-1.08-1.79-2.29-3.53-3.66-5.14-.66-.83-1.41-1.58-2.14-2.36-.73-.73-1.46-1.39-2.2-2.1-2.99-2.71-6.27-5.16-9.78-7.23-3.51-2.05-7.19-3.77-10.97-5.17-7.45-2.8-15.21-4.33-22.84-4.83-3.83-.26-7.58-.24-11.38-.08-4.06.18-7.88.75-11.61,1.43-7.45,1.39-14.48,3.27-21.45,5.03-6.95,1.76-13.8,3.61-20.54,5.25-13.29,3.18-27.2,5.13-41.17,6.47-13.99,1.35-28.1,2.04-42.26,2.33h-.01c-1.67.05-3.09.1-3.32.17-.89.24-1.78.47-2.67.66-3.09.55-6.17.78-9.24.8-.34,0,0,.08.97.23,2.42.37,4.84.82,7.27,1.24,1.28.22,3.68.59,6.29.89,15.68,1.79,31.48,2.83,47.39,2.93,7.95.03,15.94-.16,23.96-.76,4.01-.31,8.03-.7,12.06-1.25,4.07-.54,7.97-1.2,11.87-1.88,7.79-1.34,15.43-2.8,23-3.67,3.78-.44,7.52-.74,11.16-.88,1.82-.06,3.61-.1,5.35-.07,1.76.02,3.35.1,5.26.22,7.35.42,14.46,1.04,21.34,2.16,6.88,1.13,13.44,3.02,19.68,5.93.89.45,1.76.81,2.51,1.07.72.3,1.31.48,1.65.5l1.67.11c.53.05,1.05.11,1.58.18.89.12,1.38.03,1.5-.41.12-.46.24-.94.34-1.41.03-.12.31-.06.76.23,1.36.83,2.66,1.77,3.88,2.83,1,.87,1.57,1.3,1.7,1.08.16-.29.82.05,1.73,1.06.92.99,2.08,2.66,3.03,4.97.3.65.52,1.33.74,2.01.26.73.39,1.39.55,1.92s.26.94.33,1.19c.15.5.24.32.26-.54-.04-.75.17-.49.3.69.17,1.25.18,1.99.26,2.17.06.18.18-.21.28-1.22.03-.69.08-1.39.08-2.1-.02-.67.04-.88.14-.53.12.34.21,1.22.22,2.32.03.51-.04,1.03-.07,1.54-.04.51-.07,1.02-.18,1.53l-.28,1.5-.45,1.45c-.52,1.55-1.05,2.49-.99,2.47.02-.01.17-.27.41-.72.23-.45.59-1.08.85-1.88.48-1.17.77-2.41,1.02-3.68.32-1.92.38-3.96.19-6.01" fill="#fbb03c" stroke-width="0"/></g></svg>