<?xml version="1.0" encoding="UTF-8"?><svg id="Layer_2" xmlns="http://www.w3.org/2000/svg" viewBox="0 0 1057.48 286.34"><defs><style>.cls-1{fill:#fbb03c;stroke-width:0px;}</style></defs><g id="Layer_1-2"><path class="cls-1" d="M530.78,279.68l-1.78-.35c-32.08-6.14-63.46-13.6-94.15-23.05-15.14-4.77-30.1-9.99-44.94-15.49-14.82-5.49-29.68-11.38-44.75-17.34-15.07-5.95-30.31-12-45.87-17.57-3.86-1.43-7.84-2.68-11.75-4.02-3.95-1.27-7.94-2.47-11.93-3.66-8.05-2.21-16.15-4.33-24.43-5.77-2.07-.36-4.12-.8-6.2-1.1l-6.26-.86-3.13-.42-3.15-.28-6.31-.53c-1.05-.11-2.1-.13-3.16-.16l-3.16-.09-3.16-.09c-1.05-.04-2.11-.06-3.16-.02-4.21.12-8.42.09-12.59.47-2.09.15-4.18.28-6.27.46l-6.23.74-3.11.37-3.09.5-6.17,1.01c-2.05.36-4.08.82-6.11,1.23-2.03.43-4.08.8-6.08,1.32-4.03.99-8.06,1.93-12.02,3.12-1.98.58-3.98,1.11-5.95,1.72l-5.89,1.88-2.94.95-2.91,1.03-5.82,2.05c-7.69,2.89-15.31,5.93-22.79,9.26-1.87.83-3.75,1.64-5.61,2.49l-5.55,2.59c-3.71,1.7-7.34,3.56-11.02,5.33l-10.86,5.54c-3.54,1.81-7.07,3.46-10.68,4.43h-.03c-3.4.96-6.28.9-6.74.89-1.79.16-3.72.01-5.36-.63-1.43-.62-2.75-1.69-3.67-3.09-.93-1.4-1.53-3.06-1.78-4.8-.48-3.44.39-7.33,3.04-10.02.28-.31.26-.32-.05-.05-.31.27-.94.8-1.66,1.77-1.77,2.44-2.67,5.47-2.61,8.53-.03.77.12,1.53.2,2.3.19.75.31,1.53.63,2.27.51,1.5,1.38,2.92,2.52,4.12.58.65,1.42,1.33,2.47,1.98.54.27,1.14.62,1.74.84.61.2,1.23.49,1.92.64,1.35.39,2.86.6,4.42.69,1.56.04,3.2-.01,4.8-.28,4.84-.73,9.25-2.48,13.45-4.25,4.16-1.77,8.22-3.52,12.36-5.22,8.23-3.42,16.56-6.58,24.91-9.59,16.76-5.84,33.76-10.86,51.02-13.95,4.3-.86,8.63-1.43,12.95-2.06,2.16-.31,4.33-.47,6.5-.72l3.25-.34c1.08-.11,2.17-.14,3.25-.22l6.49-.39,6.49-.11c1.08-.01,2.16-.05,3.24-.04l3.23.11c2.15.09,4.31.09,6.45.25,4.29.38,8.57.62,12.82,1.3l3.19.43c1.06.14,2.13.26,3.18.48l6.35,1.18c2.12.35,4.21.91,6.31,1.39,2.1.52,4.21.94,6.29,1.53,4.17,1.19,8.35,2.25,12.48,3.64,8.29,2.55,16.47,5.67,24.62,8.89,8.14,3.31,16.21,6.85,24.26,10.62,16.09,7.49,32.1,15.69,48.78,23.04,16.72,7.36,34.12,13.53,51.81,18.32,17.69,4.82,35.71,8.39,53.83,10.78,5.24.73,9.92.9,11.45.67l7.41-1.06c2.06-.3,2.87-.73,2.41-1.29l-1.47-1.82c-.13-.16.52-.22,1.8-.16,3.78.15,7.54.41,11.31.52,3.09.12,4.69.03,4.5-.28-.26-.42,1.31-.58,4.31-.49,3.01.03,7.45.39,12.96.89l4.72.4c3.39.31,5.94.47,7.09.44,1.14-.02.77-.18-1.02-.49-1.58-.28-.92-.35,1.59-.13,5.36.48,6.29.43,2.18-.34l-4.23-.81c-1.35-.26-1.71-.44-.97-.39.74.04,2.5.22,4.73.57l6.25.97,6.26.92c1.7.26,3.12.48,4.11.64.99.16,1.54.24,1.5.21-.04-.03-.67-.16-1.72-.38-1.05-.21-2.52-.5-4.24-.81-2.55-.48-5.09-.88-7.62-1.41-1.91-.37-3.85-.74-5.8-1.11-1.95-.35-3.91-.71-5.87-1.12"/><path class="cls-1" d="M449,.51l-1.7-.06c-15.29-.49-30.55-.54-45.78-.32-15.23.25-30.44.7-45.72,1.61-15.12.81-30.29,2.06-45.42,4.24-15.14,2.19-30.21,5.34-45.11,9.33-3.73.96-7.43,2.1-11.14,3.14-3.69,1.15-7.39,2.26-11.06,3.47-3.66,1.25-7.34,2.43-10.97,3.74-3.63,1.31-7.24,2.63-10.81,4-14.3,5.45-28.16,11.37-41.96,16.92-27.81,11.04-55.73,21.89-84.12,30.91-7.1,2.25-14.23,4.36-21.39,6.22-7.16,1.85-14.37,3.54-21.56,4.6-3.6.56-7.19.9-10.69.98-3.54.07-6.78-.24-10.06-1.23-3.2-.99-6.28-2.47-8.47-4.64-2.2-2.14-3.44-4.9-3.13-8v-.02c.16-2.89,1.7-4.9,1.91-5.24.17-.36.37-.72.63-1.04.25-.32.48-.68.77-1,.59-.61,1.2-1.25,1.93-1.77,2.5-1.84,5.57-3.08,8.7-3.9,3.15-.83,6.41-1.27,9.68-1.41.72-.03-.02-.1-2.12-.17-2.62-.05-5.26.02-7.91.33-2.65.31-5.31.81-7.94,1.74-1.38.46-3.37,1.33-5.47,2.96-.26.21-.52.42-.79.64-.26.23-.5.51-.75.77-.25.27-.5.54-.76.82-.23.3-.44.62-.67.94-.22.33-.45.65-.65,1-.17.36-.34.73-.52,1.1-.39.74-.59,1.53-.81,2.34-.61,2.4-.64,4.97.01,7.46.65,2.48,1.98,4.74,3.61,6.58,3.3,3.68,7.55,5.94,11.87,7.4.54.19,1.09.37,1.64.52.56.15,1.09.34,1.67.44,1.14.22,2.31.52,3.42.62,1.12.14,2.26.3,3.36.34,1.11.06,2.23.15,3.32.14,4.39.08,8.7-.21,12.94-.66,16.99-1.86,33.37-5.72,49.63-9.88,16.24-4.23,32.28-9,48.21-14.07,7.97-2.52,15.9-5.14,23.81-7.81,7.9-2.64,15.87-5.44,23.68-8.23,15.67-5.56,31.05-11.09,46.71-14.9,15.69-3.88,31.7-6.5,47.79-8.82,32.19-4.52,64.87-8.5,97.87-13.38,4.77-.72,8.94-1.66,10.23-2.26,2.1-.96,4.21-1.9,6.32-2.81,1.77-.75,2.4-1.35,1.86-1.8l-1.72-1.45c-.15-.13.42-.33,1.58-.56,3.43-.68,6.86-1.34,10.29-1.96,2.81-.51,4.25-.92,4.01-1.19-.64-.72,5.56-1.94,15.8-2.79l4.39-.36c3.15-.25,5.52-.48,6.57-.66,1.05-.18.69-.28-1.01-.35-1.5-.06-.9-.22,1.44-.35,5-.27,5.86-.45,1.96-.64l-4.01-.21c-1.29-.07-1.64-.17-.95-.25.69-.07,2.34-.13,4.45-.1,3.93.04,7.86.11,11.79.26,1.6.06,2.93.11,3.87.15.93.04,1.45.06,1.41.03-.04-.02-.64-.08-1.63-.17-.99-.09-2.38-.2-4.01-.31l-7.22-.46c-3.63-.21-7.36-.39-11.1-.53"/><path class="cls-1" d="M1050.75,165.53l-.12.84c-1.1,7.57-2.87,14.68-6.13,20-3.21,5.32-7.89,8.83-13.73,11.59-5.81,2.63-12.57,4.32-19.66,5.96l-10.91,2.47c-3.65.83-7.32,1.63-11,2.36-7.36,1.5-14.81,2.68-22.32,3.4-7.51.71-15.04,1.12-22.61,1.24-15.16.28-30.66-.33-46.29-.16-7.82.11-15.68.44-23.51,1.22-7.83.75-15.64,2.06-23.24,4.08h-.01c-.9.24-1.72.46-2.35.65-.63.19-1.05.38-1.17.44-.87.53-1.75,1.03-2.62,1.5-3.11,1.41-6.08,3.02-9.17,4.22-.34.14.04.07,1.07-.18l3.88-.88c.65-.14,1.29-.29,1.94-.41l1.97-.28c.69-.1,1.67-.25,2.83-.45.58-.1,1.2-.2,1.85-.32.66-.08,1.34-.16,2.04-.25,8.35-1.19,16.76-1.53,25.18-1.38,8.42.18,16.84.83,25.29,1.65,16.89,1.63,33.94,3.99,51.54,4.45,8.77.26,17.54.04,26.34-.31,8.79-.37,17.63-.96,26.38-2.26,4.38-.66,8.68-1.45,13.17-2.58,4.46-1.14,8.97-2.63,13.42-4.66,4.44-2.02,8.86-4.62,12.86-8.01,2.01-1.66,3.86-3.62,5.58-5.66,1.64-2.13,3.17-4.36,4.33-6.77,1.42-2.76,1.98-5.41,1.92-6.3-.04-1.46-.25-2.89-.41-4.26-.15-1.15-.51-1.62-.95-1.45-.48.18-.94.35-1.45.5-.13.04-.14-.3-.1-.94.18-1.89.27-3.75.26-5.59,0-1.51-.15-2.29-.4-2.2-.68.21-.75-3-.82-8.23l-.05-2.24c-.06-1.61-.15-2.82-.26-3.36-.11-.54-.21-.35-.31.52-.09.77-.21.46-.24-.73-.05-2.55-.2-2.98-.45-.99l-.3,2.04c-.11.65-.21.83-.24.48-.02-.35-.03-1.18.07-2.25.15-1.99.28-4.01.45-6.04.13-1.65.24-2.77.21-2.73-.02.02-.07.33-.16.85-.07.52-.18,1.24-.3,2.08l-.5,3.71c-.12.93-.24,1.86-.39,2.8-.12.94-.25,1.87-.4,2.81"/><path class="cls-1" d="M1051.3,69.3c-.02-.31-.07-.61-.12-.92-.59-4.16-2.13-8.14-4.26-11.75-1.08-1.79-2.29-3.53-3.66-5.14-.66-.83-1.41-1.58-2.14-2.36-.73-.73-1.46-1.39-2.2-2.1-2.99-2.71-6.27-5.16-9.78-7.23-3.51-2.05-7.19-3.77-10.97-5.17-7.45-2.8-15.21-4.33-22.84-4.83-3.83-.26-7.58-.24-11.38-.08-4.06.18-7.88.75-11.61,1.43-7.45,1.39-14.48,3.27-21.45,5.03-6.95,1.76-13.8,3.61-20.54,5.25-13.29,3.18-27.2,5.13-41.17,6.47-13.99,1.35-28.1,2.04-42.26,2.33h-.01c-1.67.05-3.09.1-3.32.17-.89.24-1.78.47-2.67.66-3.09.55-6.17.78-9.24.8-.34,0,0,.08.97.23,2.42.37,4.84.82,7.27,1.24,1.28.22,3.68.59,6.29.89,15.68,1.79,31.48,2.83,47.39,2.93,7.95.03,15.94-.16,23.96-.76,4.01-.31,8.03-.7,12.06-1.25,4.07-.54,7.97-1.2,11.87-1.88,7.79-1.34,15.43-2.8,23-3.67,3.78-.44,7.52-.74,11.16-.88,1.82-.06,3.61-.1,5.35-.07,1.76.02,3.35.1,5.26.22,7.35.42,14.46,1.04,21.34,2.16,6.88,1.13,13.44,3.02,19.68,5.93.89.45,1.76.81,2.51,1.07.72.3,1.31.48,1.65.5l1.67.11c.53.05,1.05.11,1.58.18.89.12,1.38.03,1.5-.41.12-.46.24-.94.34-1.41.03-.12.31-.06.76.23,1.36.83,2.66,1.77,3.88,2.83,1,.87,1.57,1.3,1.7,1.08.16-.29.82.05,1.73,1.06.92.99,2.08,2.66,3.03,4.97.3.65.52,1.33.74,2.01.26.73.39,1.39.55,1.92.16.53.26.94.33,1.19.15.5.24.32.26-.54-.04-.75.17-.49.3.69.17,1.25.18,1.99.26,2.17.06.18.18-.21.28-1.22.03-.69.08-1.39.08-2.1-.02-.67.04-.88.14-.53.12.34.21,1.22.22,2.32.03.51-.04,1.03-.07,1.54-.04.51-.07,1.02-.18,1.53l-.28,1.5-.45,1.45c-.52,1.55-1.05,2.49-.99,2.47.02-.01.17-.27.41-.72.23-.45.59-1.08.85-1.88.48-1.17.77-2.41,1.02-3.68.32-1.92.38-3.96.19-6.01"/><path class="cls-1" d="M749.29,212.68l-1.06-.19c-19.19-3.22-38.45-5.08-57.73-6.05-9.53-.59-19.07-.87-28.6-.84-9.54.06-19.07.48-28.6,1.04-9.53.52-19.06,1.13-28.58,1.53-9.52.46-19.05.85-28.57,1.39-19.04.98-38.06,2.35-57.07,3.8-19,1.48-37.99,3.2-56.95,5.11h-.02c-2.23.24-4.13.49-4.43.58-1.16.36-2.32.69-3.48,1-4.06.92-8.12,1.62-12.2,2.07-.45.05.02.07,1.33.09,3.28.03,6.56.1,9.85.22,1.73.06,4.97.1,8.48.09,21.06-.04,42.1-.04,63.14.07,21.03.12,42.06.34,63.07.57l15.76.21c5.25.1,10.5.24,15.76.42,10.5.39,21,.94,31.5,1.26,10.49.3,20.99.28,31.48-.1,10.5-.34,21-.89,31.51-1.61,3.04-.22,5.72-.65,6.58-1.02,1.39-.6,2.77-1.2,4.16-1.75,1.16-.46,1.6-.89,1.29-1.28l-.99-1.29c-.09-.11.29-.23,1.03-.32,2.2-.27,4.4-.52,6.61-.74,1.81-.18,2.74-.4,2.6-.63-.35-.62,3.63-1.11,10.14-.96l2.78.07c2,.06,3.51.07,4.18.02.67-.05.45-.17-.61-.36-.94-.17-.55-.25.93-.16,3.16.2,3.72.13,1.28-.34l-2.51-.5c-.81-.16-1.02-.27-.58-.28.44,0,1.48.09,2.81.29,2.47.35,4.94.73,7.4,1.17,1,.18,1.83.33,2.42.44.58.11.91.16.88.14-.02-.02-.39-.12-1.01-.27-.62-.15-1.48-.36-2.5-.58l-4.51-.96c-2.27-.46-4.6-.92-6.95-1.33"/><path class="cls-1" d="M765.27,44.89l-1.37-.16c-24.65-2.8-49.29-4.31-73.94-5.16-12.18-.48-24.37-.77-36.55-.71-12.18.04-24.37.46-36.55.93-12.18.48-24.37.94-36.55,1.23l-36.55.86c-24.37.58-48.74,1.34-73.11,2.1-24.37.77-48.74,1.61-73.11,2.55h-.02c-2.87.12-5.31.26-5.7.34-1.51.29-3.02.56-4.53.81-5.25.7-10.51,1.17-15.76,1.39-.58.02.02.08,1.69.16,4.19.22,8.39.47,12.58.76,2.2.15,6.35.37,10.84.56,26.96,1.06,53.91,1.99,80.87,2.87,26.96.88,53.91,1.66,80.87,2.31,13.48.33,26.96.6,40.43,1.1,13.48.49,26.96,1.14,40.43,1.47,26.96.71,53.91-.38,80.87-2.07,3.9-.26,7.33-.73,8.42-1.12,1.77-.63,3.53-1.24,5.3-1.81,1.48-.48,2.03-.92,1.62-1.31l-1.29-1.27c-.11-.11.36-.24,1.32-.34,2.82-.32,5.63-.61,8.45-.87,2.31-.22,3.5-.45,3.32-.68-.47-.62,4.62-1.17,12.95-1.17h3.57c2.56.02,4.49-.01,5.35-.08.86-.07.57-.18-.79-.34-1.21-.14-.71-.24,1.19-.19,4.06.12,4.76.04,1.62-.38l-3.23-.44c-1.04-.14-1.32-.25-.75-.26.56-.01,1.9.05,3.6.22,3.17.29,6.34.61,9.51.99,1.29.16,2.36.29,3.12.38.75.09,1.17.14,1.14.12-.03-.02-.51-.11-1.3-.25-.8-.13-1.91-.31-3.22-.51l-5.8-.85c-2.92-.41-5.92-.8-8.93-1.16"/><path class="cls-1" d="M175.73,134.04l-.76-.04c-13.64-.51-27.06.24-40.37,1.65-6.59.63-13.15,1.46-19.65,2.63-6.5,1.15-12.94,2.67-19.37,4.24-6.43,1.58-12.86,3.15-19.32,4.54l-19.39,4.17-9.69,2.13c-1.58.35-3.32.74-4.94,1.13l-4.83,1.19c-6.35,1.57-12.64,3.1-18.78,3.84-3.03.36-6.11.51-8.57.07-1.21-.21-2.18-.6-2.59-.95-.15-.07-.18-.19-.3-.27-.03-.04-.04-.05-.08-.07-.02-.03-.03-.07-.07-.11-.09-.17-.15-.55-.1-1.04.09-.98.61-2.29,1.29-3.53.69-1.25,1.56-2.5,2.52-3.7,1.93-2.4,4.21-4.65,6.65-6.72h0c1.15-.99,2.15-1.81,2.28-1.99.51-.68,1.04-1.34,1.6-1.97,2.03-2.07,4.36-3.82,6.88-5.21.28-.16-.04-.07-.91.24-2.17.78-4.33,1.63-6.48,2.55-1.13.49-3.2,1.51-5.35,2.83-3.21,1.99-6.3,4.24-9.11,6.99-1.41,1.38-2.74,2.89-3.93,4.67-.58.9-1.13,1.87-1.58,2.98-.44,1.11-.79,2.39-.81,3.9,0,.75.1,1.56.33,2.37.13.4.29.8.46,1.19.19.34.38.68.59,1.01.87,1.28,2.01,2.31,3.15,2.99,2.3,1.4,4.51,1.92,6.61,2.32,4.2.72,8.1.68,11.95.53,7.66-.37,15.09-1.49,22.23-2.44l21.69-2.64c7.26-.9,14.5-1.87,21.79-2.6,7.28-.75,14.59-1.33,21.85-2.23,14.52-1.75,28.74-5.29,42.86-9.41,2.04-.61,3.8-1.39,4.31-1.87.84-.78,1.68-1.54,2.53-2.27.71-.61.93-1.09.65-1.44l-.9-1.13c-.08-.1.15-.27.65-.46,1.45-.57,2.91-1.11,4.37-1.63,1.2-.43,1.79-.76,1.66-.97-.35-.57,2.27-1.57,6.73-2.33l1.91-.32c1.37-.22,2.4-.42,2.85-.57.45-.15.28-.23-.48-.27-.67-.03-.42-.17.6-.29,2.19-.25,2.55-.4.8-.52l-1.8-.14c-.58-.05-.74-.12-.45-.19.3-.06,1.03-.12,1.96-.12,1.74,0,3.49.02,5.25.12,1.43.06,2.39.13,2.35.1-.04-.03-1.08-.18-2.54-.33l-3.24-.31c-1.63-.14-3.3-.25-4.97-.33"/></g></svg>