<?xml version="1.0" encoding="UTF-8"?><svg id="sel-arrow" xmlns="http://www.w3.org/2000/svg" viewBox="0 0 352.49 283.04"><defs><style>.white{fill:#f4f6f3;}.black{fill:#161617;}</style></defs><g id="sel-arrow-layer"><path class="white" d="M349.07,34.12c-3.6-6.16-9.78-9.84-16.52-9.84-1.68,0-3.36.23-5.01.68-2.33.64-5.14,1.98-7.65,3.91-1.55-.69-3.37-1.39-5.46-1.87-1.9-.44-3.86-.66-5.83-.66-6.68,0-13.46,2.65-19.04,7.28.03-1.99-.26-3.97-.9-5.86,5.29-6.84,4.77-14.73,1.51-19.95-3.08-4.9-8.55-7.82-14.64-7.82-2.97,0-6.02.66-9.06,1.96l-5.21,2.24c-3.45,1.46-6.78,3.2-9.9,5.18l-1.12.71-.04.03-.04.03c-21.3,13.69-41.24,28.67-59.27,44.52-19,16.03-36.48,32.99-51.95,50.41l-.09.1-.09.1-1.91,2.23c-.98-1.07-1.94-2.1-2.89-3.11-16.94-18.1-34.83-34.96-53.18-50.13l-.04-.03h-.01c-4.27-3.54-9.26-5.48-14.05-5.48-3.55,0-6.91,1.04-9.73,3.02l-12.35,8.71c-11.93,7.36-24.22,15.38-36.52,23.86-6.11,4.21-9.09,11.6-7.77,19.28l.1.62c.78,4.6,1.51,8.95,2.1,13.33.84,6.21,4.55,12.38,10.45,17.37l.09.07.09.07c14.94,12.25,29.68,26.06,43.82,41.06,3.27,3.48,6.58,7.12,10.11,11.11l.03.03.03.03.51.57,1.06,1.26,2.53,3,5.1,6.05.1.12.1.12c2.08,2.37,4.35,5.31,6.76,8.43,1.02,1.32,2.04,2.64,3.05,3.93l5.08,6.56,5.06,6.87,10.35,14.03,20.49,27.79,12.54,17,11.92-17.44c4.18-6.12,8.47-12.46,12.61-18.59,10.88-16.09,22.12-32.73,33.31-48.07l.08-.1.07-.11c1.06-1.51,2.23-3.01,3.47-4.61.68-.88,1.37-1.76,2.04-2.65l4.94-6.02.06-.07.06-.07c1.54-1.93,3.23-3.93,5.33-6.3l.1-.12.1-.12c3.74-4.41,7.9-8.88,11.57-12.83,16.12-17.01,33.55-32.52,51.82-46.1l.11-.08.11-.08c6.94-5.36,10.55-12.86,9.66-20.09l-.99-8.14c1.2.57,2.44,1.07,3.74,1.47,3.21,1,6.6,1.48,10.34,1.48s7.13-.48,9.68-.83c2.32-.32,9.4-1.29,14.12-7.72,2.42-3.29,3.15-6.59,3.47-8.62.49-.41,1.45-1.12,3.25-2.09.45-.24.9-.48,1.35-.73,5.38-2.88,12.75-6.82,17.29-14.9,4.17-7.42,4.01-17.86-.4-25.4Z"/><path class="black" d="M268.4,107.8c-19.28,14.34-37.28,30.42-53.81,47.87-4.09,4.4-8.18,8.81-12.07,13.39-1.99,2.25-3.95,4.53-5.82,6.88l-5.12,6.24c-2,2.65-4.06,5.16-6,7.92-15.68,21.49-31.15,45.03-46.18,67.03l-20.49-27.79-10.34-14.03-5.17-7.01-5.22-6.74c-3.47-4.41-7.01-9.21-10.37-13.03l-5.1-6.05-2.55-3.02-1.2-1.41-.65-.72c-3.42-3.87-6.89-7.7-10.43-11.47-14.18-15.04-29.24-29.26-45.22-42.37-2.86-2.42-4.93-5.37-5.27-7.92-.65-4.84-1.46-9.6-2.28-14.47-.33-1.94.19-3.5,1.5-4.4,11.81-8.14,23.95-16.1,36.27-23.69l12.69-8.95c.29-.2.68-.3,1.12-.3,1.24,0,2.96.75,4.53,2.06h.02c18.3,15.15,35.56,31.51,51.78,48.83,4.06,4.33,8.02,8.74,11.95,13.19l.73.82.17.21.35.42c.33.39.19.25.28.36l.49.75,13.17-15.37c15.6-17.56,32.58-33.87,50.53-49,18.02-15.85,37.33-30.25,57.59-43.27l1.13-.72c2.49-1.58,5.1-2.93,7.75-4.05l5.24-2.25c1.17-.5,2.26-.75,3.15-.75s1.6.26,1.92.78c.64,1.03-.28,2.81-2.25,4.38l-7.25,5.75c-1.3,1.01-2.06,2.23-2.14,3.15-.07.93.6,1.5,1.77,1.53,1.22.03,2.44.07,3.67.15,3.58.19,4.36,2.87,1.89,6.14-1.13,1.58-.88,2.88.59,3.13,1.66.29,2.57,1.29,2.52,2.76-.04,1.47-1.03,3.27-2.72,5l-2.36,2.4c-5.55,5.55-7.1,11.53-4.48,14.71,1,1.23.97,3.11-.07,5.23-1.28,2.57-2.51,5.18-3.68,7.82-.4.89-.37,1.66.08,2.13l5.24,5.52c1.64,1.74,2.62,3.98,2.92,6.57l1.12,9.23c.24,1.88-1.4,4.44-3.94,6.41Z"/><path class="black" d="M336.39,52.17c-2.66,4.73-7.95,7.2-12.72,9.79-4.77,2.59-9.74,6.19-10.69,11.54-.21,1.2-.23,2.5-.95,3.48-.9,1.23-2.57,1.53-4.08,1.74-2.52.35-5.09.69-7.63.69-2,0-3.98-.21-5.9-.81-4.34-1.35-8.25-5.25-8.05-9.79.1-2.34,1.24-4.49,2.27-6.59,2.42-4.96,4.4-10.23,7.92-14.48,2.99-3.61,7.46-6.39,12.03-6.39.82,0,1.64.09,2.45.28,3.14.73,5.81,2.82,8.91,3.69.59.16,1.17.24,1.74.24,2.46,0,4.71-1.44,6.15-3.63.61-.93,2.59-2.2,3.66-2.5.36-.1.71-.15,1.05-.15,4.49,0,6.32,8.48,3.84,12.89Z"/></g></svg>