<?xml version="1.0" encoding="UTF-8"?><svg id="Layer_2" xmlns="http://www.w3.org/2000/svg" viewBox="0 0 995.22 154.76"><defs><style>.cls-1{fill:#006837;stroke-width:0px;}</style></defs><g id="Layer_1-2"><path class="cls-1" d="M949.64,3c23.51,0,42.57,19.06,42.57,42.57v63.61c0,23.51-19.06,42.57-42.57,42.57H45.57c-23.51,0-42.57-19.06-42.57-42.57v-63.61C3,22.06,22.06,3,45.57,3h904.07M949.64,0H45.57C20.44,0,0,20.44,0,45.57v63.61c0,25.13,20.44,45.57,45.57,45.57h904.07c25.13,0,45.57-20.44,45.57-45.57v-63.61c0-25.13-20.44-45.57-45.57-45.57h0Z"/></g></svg>