<?xml version="1.0" encoding="UTF-8"?><svg id="Layer_2" xmlns="http://www.w3.org/2000/svg" viewBox="0 0 935.47 89.89"><defs><style>.cls-1{fill:#016938;stroke-width:0px;}</style></defs><g id="Layer_1-2"><path class="cls-1" d="M891.81,8.67c3.46.36,6.9.76,10.32,1.21,1.71.23,3.41.45,5.09.71,1.69.29,3.36.57,5.02.86l13.22,2.35c5.95,1.06,10.03,2.69,10.01,3.99-.03,1.3-4.14,1.97-10.08,1.63-7.3-.39-14.59-.87-21.88-1.19-3.9-.15-7.03.16-8.4.83-1.37.67-.83,1.62,1.46,2.56l7.11,2.91c3.45,1.42,4.68,2.87,3.89,3.97-.4.56-1.3,1.04-2.69,1.41-1.39.4-3.27.71-5.61.89-4.39.35-5.65,1.55-3.03,2.88,2.96,1.52,3.45,2.99,1.37,4.1-2.08,1.1-6.55,1.73-12.37,1.74l-8.11.02c-18.96.29-30.71,3.53-30,8.05.26,1.7-2.53,3.13-7.78,4.07l-19.18,3.35c-2.16.38-3.26.99-3.05,1.71l2.37,8.24c.74,2.6-.64,5.06-4.06,7.28l-12.2,8.11c-2.5,1.68-10.1,2.45-18.69,2.06-118.78-5.38-239.05-.26-360.47,3.72-30.37.99-60.81,1.91-91.33,2.61-30.53.67-61.13,1.09-91.8,1.16-30.68.02-61.42-.4-92.21-1.28-30.79-.91-61.62-2.5-92.46-4.6-10.28-.78-19.68-2.66-24.56-4.92-9.28-4.38-18.51-8.87-27.69-13.29-3.67-1.77-4.86-3.55-3.38-5.04,6.68-6.72,13.28-13.44,19.82-20.18,6.54-6.75,13.01-13.42,19.43-20.3l11.25-15.14c.96-1.3,6.39-1.91,12.7-1.43h.05c6.7.48,13.42.86,20.13,1.29l10.07.63c3.36.21,6.72.34,10.08.51l20.17.98,20.21.73,10.1.36,10.12.24,20.24.48c13.52.15,27.02.43,40.56.42,54.13.28,108.49-.91,163.05-2.49C497.74,3.67,607.89-1.45,719.2.39c14.06.03,28.16.39,42.26.65l21.17.67c7.05.19,14.12.53,21.18.86l10.6.49,5.3.24,5.3.32,21.21,1.3c7.07.46,14.15,1.07,21.22,1.6l10.61.83,10.61,1.01,3.14.31M851.79,60.44l-7.87,2.15c-2.82.77-6.35,2.6-5.74,5.46.77,3.64,7.33,3.5,7.95,7.17.15.9-.1,1.93.47,2.64.41.52,1.13.67,1.79.73,3.22.29,6.52-.76,9.65.05,2.55.66,4.77,2.53,7.4,2.67,6.08.31,8.91-8.09,14.68-10.03,1.92-.65,4.02-.51,6.01-.9s4.09-1.6,4.45-3.6c.23-1.26-.32-2.56-1.11-3.57-1.45-1.86-3.78-3-6.14-3-1.61,0-3.17.5-4.75.78-9.72,1.74-20.58-4.39-29.15.52"/></g></svg>