<?xml version="1.0" encoding="UTF-8"?><svg id="b" xmlns="http://www.w3.org/2000/svg" viewBox="0 0 196.83 95.81"><g id="c"><path d="M157.83.92c.61-.61,1.33-.92,2.15-.92h33.78c2.05,0,3.07,1.03,3.07,3.07l-.31,10.75c0,.82-.31,1.53-.92,2.15l-78.61,78.61c-.61.61-1.33.93-2.15.92l-10.75.31c-2.05,0-3.07-1.02-3.07-3.07v-33.78c0-.82.31-1.54.92-2.15L157.83.92ZM0,2.76C0,1.13.92.21,2.76,0h33.78c.82,0,1.54.31,2.15.92l55.89,55.89c.61.61.92,1.33.92,2.15v33.78c0,2.05-.92,2.98-2.76,2.76h-11.06c-.82,0-1.54-.31-2.15-.92L1.23,16.27c-.61-.61-.92-1.32-.92-2.15L0,2.76Z" fill="#fff" stroke-width="0"/></g></svg>