<?xml version="1.0" encoding="UTF-8"?><svg id="time-indica" xmlns="http://www.w3.org/2000/svg" viewBox="0 0 507.78 459.43"><defs><style>.black{fill:#131314;}</style></defs><g id="time-indica-layer"><path class="black" d="M137.9,41.58c2.73-1.43,4.96-3.02,5.49-3.91.86-1.42,1.77-2.77,2.67-4.17.76-1.17.84-2.05.22-2.6l-1.99-1.75c-.17-.15.09-.5.73-.98,1.91-1.38,3.79-2.85,5.75-4.18,1.61-1.08,2.33-1.91,2-2.32-.44-.55.2-1.51,1.73-2.74,1.55-1.21,3.94-2.81,7.16-4.21l2.74-1.25c1.97-.9,3.4-1.75,3.96-2.37.56-.62.2-.94-1.01-.9-1.07.04-.8-.48.65-1.25,3.12-1.56,3.46-2.52.68-2.35-.95.05-1.88.19-2.83.29-.91.1-1.22-.07-.84-.46.38-.39,1.41-.97,2.77-1.51l7.75-2.81c2.1-.76,3.45-1.54,3.29-1.9-.16-.36-1.78-.22-4,.35l-4.91,1.27c-1.23.33-2.49.63-3.73,1.04-1.23.42-2.48.85-3.72,1.28l-1.12.4c-10.16,3.56-20,8.02-29.62,12.84l-7.13,3.79c-1.2.61-2.36,1.29-3.52,1.98l-3.48,2.06c-4.69,2.66-9.13,5.72-13.63,8.66-35.27,23.84-64.53,56.92-82.86,95.68-9.2,19.34-15.57,40.07-18.79,61.33l-1.05,8c-.32,2.67-.46,5.36-.7,8.04l-.31,4.02-.11,4.04c-.05,2.69-.19,5.38-.15,8.07.08,10.77,1.05,21.52,2.67,32.17v.02c.45,2.5,1.18,4.55,1.64,4.81,1.82,1.01,3.64,1.99,5.46,2.93,2.53,1.78,5.25,3.45,7.92,5.05,2.67,1.6,5.32,3.13,7.94,4.59.58.32.95-.28,1.04-1.69.26-3.54.4-6.99.78-10.44.23-1.82-.04-5.06-.71-8.5-1.66-10.39-2.5-20.9-2.48-31.42l.2-7.89c.16-2.63.4-5.25.6-7.87.13-2.63.6-5.23.91-7.84l.51-3.92.71-3.89.72-3.89.36-1.94.46-1.92,1.83-7.7,2.22-7.6c.34-1.27.77-2.53,1.21-3.77l1.3-3.74c3.57-9.94,7.78-19.68,12.89-28.96,20.18-37.32,52.15-68.06,89.73-88.05Z"/><path class="black" d="M507.71,237.92c-.05-2.69-.29-5.37-.43-8.06l-.25-4.03-.45-4.01c-.33-2.67-.56-5.35-.97-8.01-1.57-10.66-4.02-21.17-7.1-31.49v-.02c-.8-2.41-1.8-4.35-2.3-4.54-1.95-.75-3.88-1.46-5.81-2.15-2.75-1.41-5.68-2.68-8.54-3.9-2.86-1.22-5.7-2.36-8.5-3.45-.62-.24-.9.41-.79,1.82.23,3.54.57,6.98.67,10.45.03,1.83.74,5.01,1.88,8.32,3.09,10.06,5.37,20.35,6.81,30.78l.9,7.84c.21,2.62.33,5.25.5,7.88.23,2.62.13,5.26.19,7.89l.04,3.95-.16,3.95-.17,3.95-.08,1.97-.18,1.97-.75,7.88-1.14,7.83c-.16,1.31-.41,2.61-.68,3.9l-.77,3.89c-2.16,10.34-4.98,20.57-8.75,30.47-14.81,39.76-42.21,74.63-76.66,99.64-2.51,1.79-4.5,3.68-4.89,4.63-.66,1.52-1.37,2.99-2.07,4.5-.59,1.26-.55,2.15.14,2.61l2.21,1.46c.19.13-.02.51-.59,1.07-1.7,1.63-3.36,3.35-5.11,4.93-1.45,1.29-2.04,2.21-1.66,2.58.51.48.01,1.52-1.34,2.95-1.36,1.41-3.52,3.33-6.51,5.16l-2.54,1.62c-1.83,1.16-3.12,2.21-3.59,2.9-.47.69-.07.96,1.13.75,1.05-.19.86.36-.47,1.33-2.87,1.98-3.08,2.98-.35,2.43.94-.18,1.84-.45,2.76-.68.88-.23,1.22-.1.9.34-.32.44-1.26,1.16-2.54,1.88l-7.28,3.86c-1.98,1.05-3.2,2-3,2.33.21.33,1.8-.03,3.91-.9l4.69-1.93c1.17-.5,2.38-.97,3.55-1.54,1.16-.59,2.33-1.19,3.51-1.78l1.06-.56c9.57-4.94,18.69-10.71,27.55-16.82l6.54-4.74c1.1-.77,2.16-1.6,3.21-2.45l3.16-2.52c4.27-3.28,8.24-6.93,12.3-10.47,31.63-28.5,56.01-65.32,68.8-106.25,6.43-20.43,9.87-41.84,10.1-63.35l-.06-8.07Z"/><path class="black" d="M30.74,291.24c-.56-.28-1.22-.18-1.85-.19-2.8-.03-5.05-2.26-6.77-4.47-1.72-2.21-3.42-4.69-6.06-5.65-2.63-.96-7.24,1.02-6.07,3.56.24.52,1.06,1.42,1.58,1.65,1.52.67,2.57,2.08,2.39,3.73-.18,1.65-1.02,3.19-1.13,4.85-.18,2.84,1.87,5.42,4.33,6.86s5.31,2,8.04,2.81c1.16.35,2.35.74,3.55.6,2.33-.28,3.99-2.6,4.3-4.92.32-2.32-.38-4.65-1.08-6.89-.23-.75-.53-1.57-1.23-1.93Z"/><path class="black" d="M465.77,150.36c.42.66.93,1.38,1.7,1.53.61.12,1.23-.15,1.83-.31,2.71-.71,5.47.84,7.72,2.51,2.25,1.67,4.55,3.62,7.34,3.84,2.79.22,6.71-2.9,4.91-5.05-.37-.44-1.4-1.09-1.96-1.17-1.64-.24-3.03-1.32-3.29-2.96s.14-3.35-.2-4.97c-.58-2.79-3.24-4.73-5.99-5.46s-5.65-.52-8.5-.58c-1.21-.03-2.46-.09-3.58.36-2.17.89-3.15,3.56-2.84,5.89s1.6,4.39,2.87,6.36Z"/></g></svg>