<?xml version="1.0" encoding="UTF-8"?><svg id="b" xmlns="http://www.w3.org/2000/svg" viewBox="0 0 196.83 95.81"><g id="c"><path d="M101.95,39c-.61-.61-.92-1.33-.92-2.15V3.07C101.02,1.02,102.05,0,104.09,0l10.75.31c.82,0,1.54.31,2.15.92l78.61,78.61c.61.61.92,1.32.92,2.15l.31,10.75c0,2.04-1.02,3.07-3.07,3.07h-33.78c-.82,0-1.54-.31-2.15-.92l-55.89-55.89ZM.31,81.68c0-.83.31-1.54.92-2.15L79.53,1.23c.61-.61,1.33-.93,2.15-.92h11.06c1.84-.21,2.76.71,2.76,2.76v33.78c0,.82-.31,1.54-.92,2.15l-55.89,55.89c-.61.61-1.33.92-2.15.92H2.76C.92,95.6,0,94.67,0,93.04l.31-11.36Z" fill="#fff" stroke-width="0"/></g></svg>