<?xml version="1.0" encoding="UTF-8"?><svg id="time-encl" xmlns="http://www.w3.org/2000/svg" viewBox="0 0 379.18 381.08"><defs><style>.black{fill:#131314;}</style></defs><g id="time-encl-layer"><path class="black" d="M311.02,331.41c2.59-3.23,5.47-6.05,8.24-9,1.39-1.46,2.89-2.82,4.27-4.3l4.22-4.35c5.48-5.92,10.82-12.13,14.19-19.61,1.18-2.4,2.38-4.78,3.71-7.07,1.37-2.27,2.73-4.53,4.1-6.8l2.11-3.38c.69-1.13,1.33-2.3,2-3.45,1.31-2.32,2.65-4.63,3.69-7.07,5.35-11.69,9.72-23.94,11.94-36.62,1.67-9.73,3.36-28.86,2.18-38.58,0-.05-.03-.09-.04-.14,4.19-.46,7.11-2.21,7.32-6.16.39-9.37.28-18.86-.58-28.37l-.36-6.34c-.11-2.13-.19-4.27-.36-6.41-.24-2.12-.54-4.23-1-6.3-.23-1.03-.47-2.07-.81-3.07-.35-1-.75-1.98-1.21-2.93-4.99-10.6-8.87-21.34-13.36-32.21-.71-1.64-1.52-3.23-2.41-4.78-.44-.77-.89-1.55-1.37-2.3l-1.52-2.21-6.21-8.71c-2.51-3.85-5.33-7.48-8.08-11.17-2.91-3.55-5.76-7.18-8.9-10.55-3.02-3.49-6.32-6.71-9.56-10-3.39-3.14-6.73-6.34-10.32-9.27-2.98-2.6-5.55-5.84-8.9-8.02-1.65-1.12-3.42-2.03-5.17-2.99-1.76-.93-3.51-1.88-5.31-2.72-3.63-1.64-7.16-3.42-10.74-5.07-2.66-1.27-5.67-1.68-8.39-2.59-8.41-3.16-16.58-6.93-25.2-9.56-6.41-1.88-12.97-3.14-19.54-4.15-1.8-.27-3.61-.45-5.43-.6-1.82-.15-3.65-.15-5.46-.29-1.81-.11-3.6-.32-5.38-.59-1.78-.24-3.55-.62-5.3-1.22-1.31-.44-2.62-.84-3.93-1.1-1.31-.23-2.62-.36-3.93-.37-2.62,0-5.23.38-7.83,1.7-1.29.63-2.73-.04-4.1-.35-3.46-.84-7.34-3.53-10.53-1.78-2.11,1.14-4.22,1.99-6.35,2.58-2.13.6-4.29.88-6.45,1.24-4.3.74-8.7,1.15-12.72,3.08-1.77.84-4.28-.44-5.66,1.3-2.38,3.03-5.13,3.94-8.18,3.96-3.03.08-6.39-.86-9.88-1.76-1.24-.29-2.96-.24-3.13,1.23-.36,3.29-2.15,2.57-3.69,2.91-1.57.31-3.7.17-4.19,2.1-.67,2.69-1.97,3.88-3.52,4.6-1.54.73-3.27,1.09-4.76,1.94-.83.48-1.71.86-2.53,1.36-1.33.92-15.46,7.29-33.2,21.05-8.83,6.88-18.43,15.71-27.48,26.31-9.05,10.59-17.58,22.91-24.5,36.25-6.9,13.34-12.23,27.61-15.73,41.54-3.53,13.93-5.22,27.48-5.66,39.33-.44,11.87.21,22.1,1.09,29.72.95,7.6,1.85,12.62,2.26,14.17l1.52,6.3c.58,2.08,1.2,4.15,1.81,6.22l.93,3.1,1.05,3.06,2.13,6.11,2.39,6.01,1.2,3,1.32,2.95,2.64,5.9,2.86,5.8c1.04,2.2,2.23,4.32,3.47,6.4,1.25,2.08,2.48,4.16,3.99,6.07,1.47,1.93,3.04,3.79,4.74,5.53,1.78,1.69,3.68,3.27,5.75,4.69.87.59,1.99.98,2.62,1.72,6.01,7.64,12.72,14.65,19.49,21.57,2.33,2.29,4.41,4.85,6.7,7.21,2.25,2.41,4.51,4.84,7.1,6.87,3.83,3.22,8.66,5.06,12.76,7.8,14.42,9.16,29.81,16.92,46.16,21.88,10.81,3.32,22.04,4.81,33.09,6.31,4.39.52,8.73,1.41,13.13,1.96,4.39.71,8.81,1.04,13.25,1.11,3.34,0,6.67-.58,9.97-1.1,3.3-.61,6.56-1.39,9.85-1.79,10.44-1.57,20.76-3.76,30.8-6.87,10.03-3.09,19.78-7.11,28.83-12.31,1.75-.93,3.44-1.96,5.15-2.94,1.7-1,3.44-1.92,5.13-2.93,3.34-2.09,6.77-4.01,9.97-6.3,6.55-4.34,12.58-9.48,17.72-15.44Z"/></g></svg>